<svg xmlns="http://www.w3.org/2000/svg" xmlns:xlink="http://www.w3.org/1999/xlink" style="margin:auto;background:rgba(NaN, NaN, NaN, 0);display:block;z-index:1;position:relative" width="578" height="257" preserveAspectRatio="xMidYMid" viewBox="0 0 578 257">
<g transform="translate(289,128.5) scale(1,1) translate(-289,-128.5)"><g transform="translate(-100 182.04772191534667) rotate(0)">
  <animateTransform attributeName="transform" type="translate" keyTimes="0;1" values="-100 182.04772191534667;578 182.04772191534667" dur="250s" repeatCount="indefinite" begin="-11.27130159307449s"></animateTransform>
  <path d="M84.717,33.597c0.791-2.503,1.186-5.138,1.186-7.773C85.903,11.594,74.308,0,60.079,0 c-9.881,0-18.445,5.534-22.793,13.702c-1.581-0.527-3.426-0.791-5.138-0.791c-9.486,0-17.128,7.642-17.128,17.128 c0,1.186,0.132,2.372,0.395,3.426C6.719,34.783,0,42.424,0,51.515C0,61.66,8.169,69.829,18.314,69.829h63.373 C91.831,69.829,100,61.66,100,51.515C99.868,42.556,93.281,35.046,84.717,33.597z" fill="rgba(189, 222, 255, 0)" transform="scale(0.31625000000000003)"></path>
</g><g transform="translate(-100 78.11623418696367) rotate(0)">
  <animateTransform attributeName="transform" type="translate" keyTimes="0;1" values="-100 78.11623418696367;578 78.11623418696367" dur="250s" repeatCount="indefinite" begin="-79.84182037259241s"></animateTransform>
  <path d="M84.717,33.597c0.791-2.503,1.186-5.138,1.186-7.773C85.903,11.594,74.308,0,60.079,0 c-9.881,0-18.445,5.534-22.793,13.702c-1.581-0.527-3.426-0.791-5.138-0.791c-9.486,0-17.128,7.642-17.128,17.128 c0,1.186,0.132,2.372,0.395,3.426C6.719,34.783,0,42.424,0,51.515C0,61.66,8.169,69.829,18.314,69.829h63.373 C91.831,69.829,100,61.66,100,51.515C99.868,42.556,93.281,35.046,84.717,33.597z" fill="rgba(189, 222, 255, 0)" transform="scale(0.31625000000000003)"></path>
</g><g transform="translate(-100 42.84092705959375) rotate(0)">
  <animateTransform attributeName="transform" type="translate" keyTimes="0;1" values="-100 42.84092705959375;578 42.84092705959375" dur="250s" repeatCount="indefinite" begin="-185.62906399165436s"></animateTransform>
  <path d="M84.717,33.597c0.791-2.503,1.186-5.138,1.186-7.773C85.903,11.594,74.308,0,60.079,0 c-9.881,0-18.445,5.534-22.793,13.702c-1.581-0.527-3.426-0.791-5.138-0.791c-9.486,0-17.128,7.642-17.128,17.128 c0,1.186,0.132,2.372,0.395,3.426C6.719,34.783,0,42.424,0,51.515C0,61.66,8.169,69.829,18.314,69.829h63.373 C91.831,69.829,100,61.66,100,51.515C99.868,42.556,93.281,35.046,84.717,33.597z" fill="rgba(189, 222, 255, 0)" transform="scale(0.31625000000000003)"></path>
</g><g transform="translate(-100 124.74256938301859) rotate(0)">
  <animateTransform attributeName="transform" type="translate" keyTimes="0;1" values="-100 124.74256938301859;578 124.74256938301859" dur="250s" repeatCount="indefinite" begin="-218.07128620011406s"></animateTransform>
  <path d="M84.717,33.597c0.791-2.503,1.186-5.138,1.186-7.773C85.903,11.594,74.308,0,60.079,0 c-9.881,0-18.445,5.534-22.793,13.702c-1.581-0.527-3.426-0.791-5.138-0.791c-9.486,0-17.128,7.642-17.128,17.128 c0,1.186,0.132,2.372,0.395,3.426C6.719,34.783,0,42.424,0,51.515C0,61.66,8.169,69.829,18.314,69.829h63.373 C91.831,69.829,100,61.66,100,51.515C99.868,42.556,93.281,35.046,84.717,33.597z" fill="rgba(189, 222, 255, 0)" transform="scale(0.31625000000000003)"></path>
</g><g transform="translate(-100 12.498693474274043) rotate(0)">
  <animateTransform attributeName="transform" type="translate" keyTimes="0;1" values="-100 12.498693474274043;578 12.498693474274043" dur="250s" repeatCount="indefinite" begin="-196.7768396297494s"></animateTransform>
  <path d="M84.717,33.597c0.791-2.503,1.186-5.138,1.186-7.773C85.903,11.594,74.308,0,60.079,0 c-9.881,0-18.445,5.534-22.793,13.702c-1.581-0.527-3.426-0.791-5.138-0.791c-9.486,0-17.128,7.642-17.128,17.128 c0,1.186,0.132,2.372,0.395,3.426C6.719,34.783,0,42.424,0,51.515C0,61.66,8.169,69.829,18.314,69.829h63.373 C91.831,69.829,100,61.66,100,51.515C99.868,42.556,93.281,35.046,84.717,33.597z" fill="rgba(189, 222, 255, 0)" transform="scale(0.31625000000000003)"></path>
</g><g transform="translate(-100 212.97922993632113) rotate(0)">
  <animateTransform attributeName="transform" type="translate" keyTimes="0;1" values="-100 212.97922993632113;578 212.97922993632113" dur="250s" repeatCount="indefinite" begin="-200.044734132268s"></animateTransform>
  <path d="M84.717,33.597c0.791-2.503,1.186-5.138,1.186-7.773C85.903,11.594,74.308,0,60.079,0 c-9.881,0-18.445,5.534-22.793,13.702c-1.581-0.527-3.426-0.791-5.138-0.791c-9.486,0-17.128,7.642-17.128,17.128 c0,1.186,0.132,2.372,0.395,3.426C6.719,34.783,0,42.424,0,51.515C0,61.66,8.169,69.829,18.314,69.829h63.373 C91.831,69.829,100,61.66,100,51.515C99.868,42.556,93.281,35.046,84.717,33.597z" fill="rgba(189, 222, 255, 0)" transform="scale(0.31625000000000003)"></path>
</g><g transform="translate(-100 99.41562376019523) rotate(0)">
  <animateTransform attributeName="transform" type="translate" keyTimes="0;1" values="-100 99.41562376019523;578 99.41562376019523" dur="250s" repeatCount="indefinite" begin="-57.05619970430903s"></animateTransform>
  <path d="M84.717,33.597c0.791-2.503,1.186-5.138,1.186-7.773C85.903,11.594,74.308,0,60.079,0 c-9.881,0-18.445,5.534-22.793,13.702c-1.581-0.527-3.426-0.791-5.138-0.791c-9.486,0-17.128,7.642-17.128,17.128 c0,1.186,0.132,2.372,0.395,3.426C6.719,34.783,0,42.424,0,51.515C0,61.66,8.169,69.829,18.314,69.829h63.373 C91.831,69.829,100,61.66,100,51.515C99.868,42.556,93.281,35.046,84.717,33.597z" fill="rgba(189, 222, 255, 0)" transform="scale(0.31625000000000003)"></path>
</g><g transform="translate(-100 96.74614715360143) rotate(0)">
  <animateTransform attributeName="transform" type="translate" keyTimes="0;1" values="-100 96.74614715360143;578 96.74614715360143" dur="250s" repeatCount="indefinite" begin="-67.17802873789225s"></animateTransform>
  <path d="M84.717,33.597c0.791-2.503,1.186-5.138,1.186-7.773C85.903,11.594,74.308,0,60.079,0 c-9.881,0-18.445,5.534-22.793,13.702c-1.581-0.527-3.426-0.791-5.138-0.791c-9.486,0-17.128,7.642-17.128,17.128 c0,1.186,0.132,2.372,0.395,3.426C6.719,34.783,0,42.424,0,51.515C0,61.66,8.169,69.829,18.314,69.829h63.373 C91.831,69.829,100,61.66,100,51.515C99.868,42.556,93.281,35.046,84.717,33.597z" fill="rgba(189, 222, 255, 0)" transform="scale(0.31625000000000003)"></path>
</g><g transform="translate(-100 159.6218906327477) rotate(0)">
  <animateTransform attributeName="transform" type="translate" keyTimes="0;1" values="-100 159.6218906327477;578 159.6218906327477" dur="250s" repeatCount="indefinite" begin="-111.03969512798645s"></animateTransform>
  <path d="M84.717,33.597c0.791-2.503,1.186-5.138,1.186-7.773C85.903,11.594,74.308,0,60.079,0 c-9.881,0-18.445,5.534-22.793,13.702c-1.581-0.527-3.426-0.791-5.138-0.791c-9.486,0-17.128,7.642-17.128,17.128 c0,1.186,0.132,2.372,0.395,3.426C6.719,34.783,0,42.424,0,51.515C0,61.66,8.169,69.829,18.314,69.829h63.373 C91.831,69.829,100,61.66,100,51.515C99.868,42.556,93.281,35.046,84.717,33.597z" fill="rgba(189, 222, 255, 0)" transform="scale(0.31625000000000003)"></path>
</g><g transform="translate(-100 9.990870159907972) rotate(0)">
  <animateTransform attributeName="transform" type="translate" keyTimes="0;1" values="-100 9.990870159907972;578 9.990870159907972" dur="250s" repeatCount="indefinite" begin="-249.6288259329471s"></animateTransform>
  <path d="M84.717,33.597c0.791-2.503,1.186-5.138,1.186-7.773C85.903,11.594,74.308,0,60.079,0 c-9.881,0-18.445,5.534-22.793,13.702c-1.581-0.527-3.426-0.791-5.138-0.791c-9.486,0-17.128,7.642-17.128,17.128 c0,1.186,0.132,2.372,0.395,3.426C6.719,34.783,0,42.424,0,51.515C0,61.66,8.169,69.829,18.314,69.829h63.373 C91.831,69.829,100,61.66,100,51.515C99.868,42.556,93.281,35.046,84.717,33.597z" fill="rgba(189, 222, 255, 0)" transform="scale(0.31625000000000003)"></path>
</g><g transform="translate(-100 14.04041725596484) rotate(0)">
  <animateTransform attributeName="transform" type="translate" keyTimes="0;1" values="-100 14.04041725596484;578 14.04041725596484" dur="250s" repeatCount="indefinite" begin="-51.28901778720157s"></animateTransform>
  <path d="M84.717,33.597c0.791-2.503,1.186-5.138,1.186-7.773C85.903,11.594,74.308,0,60.079,0 c-9.881,0-18.445,5.534-22.793,13.702c-1.581-0.527-3.426-0.791-5.138-0.791c-9.486,0-17.128,7.642-17.128,17.128 c0,1.186,0.132,2.372,0.395,3.426C6.719,34.783,0,42.424,0,51.515C0,61.66,8.169,69.829,18.314,69.829h63.373 C91.831,69.829,100,61.66,100,51.515C99.868,42.556,93.281,35.046,84.717,33.597z" fill="rgba(189, 222, 255, 0)" transform="scale(0.31625000000000003)"></path>
</g><g transform="translate(-100 156.62685049089023) rotate(0)">
  <animateTransform attributeName="transform" type="translate" keyTimes="0;1" values="-100 156.62685049089023;578 156.62685049089023" dur="125s" repeatCount="indefinite" begin="-81.45441095757144s"></animateTransform>
  <path d="M84.717,33.597c0.791-2.503,1.186-5.138,1.186-7.773C85.903,11.594,74.308,0,60.079,0 c-9.881,0-18.445,5.534-22.793,13.702c-1.581-0.527-3.426-0.791-5.138-0.791c-9.486,0-17.128,7.642-17.128,17.128 c0,1.186,0.132,2.372,0.395,3.426C6.719,34.783,0,42.424,0,51.515C0,61.66,8.169,69.829,18.314,69.829h63.373 C91.831,69.829,100,61.66,100,51.515C99.868,42.556,93.281,35.046,84.717,33.597z" fill="rgba(255, 255, 255, 0.15272177419354838)" transform="scale(0.3775)"></path>
</g><g transform="translate(-100 112.37125844521849) rotate(0)">
  <animateTransform attributeName="transform" type="translate" keyTimes="0;1" values="-100 112.37125844521849;578 112.37125844521849" dur="125s" repeatCount="indefinite" begin="-228.9312301564701s"></animateTransform>
  <path d="M84.717,33.597c0.791-2.503,1.186-5.138,1.186-7.773C85.903,11.594,74.308,0,60.079,0 c-9.881,0-18.445,5.534-22.793,13.702c-1.581-0.527-3.426-0.791-5.138-0.791c-9.486,0-17.128,7.642-17.128,17.128 c0,1.186,0.132,2.372,0.395,3.426C6.719,34.783,0,42.424,0,51.515C0,61.66,8.169,69.829,18.314,69.829h63.373 C91.831,69.829,100,61.66,100,51.515C99.868,42.556,93.281,35.046,84.717,33.597z" fill="rgba(255, 255, 255, 0.15272177419354838)" transform="scale(0.3775)"></path>
</g><g transform="translate(-100 125.06060268426289) rotate(0)">
  <animateTransform attributeName="transform" type="translate" keyTimes="0;1" values="-100 125.06060268426289;578 125.06060268426289" dur="125s" repeatCount="indefinite" begin="-186.57858447792736s"></animateTransform>
  <path d="M84.717,33.597c0.791-2.503,1.186-5.138,1.186-7.773C85.903,11.594,74.308,0,60.079,0 c-9.881,0-18.445,5.534-22.793,13.702c-1.581-0.527-3.426-0.791-5.138-0.791c-9.486,0-17.128,7.642-17.128,17.128 c0,1.186,0.132,2.372,0.395,3.426C6.719,34.783,0,42.424,0,51.515C0,61.66,8.169,69.829,18.314,69.829h63.373 C91.831,69.829,100,61.66,100,51.515C99.868,42.556,93.281,35.046,84.717,33.597z" fill="rgba(255, 255, 255, 0.15272177419354838)" transform="scale(0.3775)"></path>
</g><g transform="translate(-100 89.16754018997315) rotate(0)">
  <animateTransform attributeName="transform" type="translate" keyTimes="0;1" values="-100 89.16754018997315;578 89.16754018997315" dur="125s" repeatCount="indefinite" begin="-198.65202992199826s"></animateTransform>
  <path d="M84.717,33.597c0.791-2.503,1.186-5.138,1.186-7.773C85.903,11.594,74.308,0,60.079,0 c-9.881,0-18.445,5.534-22.793,13.702c-1.581-0.527-3.426-0.791-5.138-0.791c-9.486,0-17.128,7.642-17.128,17.128 c0,1.186,0.132,2.372,0.395,3.426C6.719,34.783,0,42.424,0,51.515C0,61.66,8.169,69.829,18.314,69.829h63.373 C91.831,69.829,100,61.66,100,51.515C99.868,42.556,93.281,35.046,84.717,33.597z" fill="rgba(255, 255, 255, 0.15272177419354838)" transform="scale(0.3775)"></path>
</g><g transform="translate(-100 64.1323730452165) rotate(0)">
  <animateTransform attributeName="transform" type="translate" keyTimes="0;1" values="-100 64.1323730452165;578 64.1323730452165" dur="125s" repeatCount="indefinite" begin="-58.01618802835423s"></animateTransform>
  <path d="M84.717,33.597c0.791-2.503,1.186-5.138,1.186-7.773C85.903,11.594,74.308,0,60.079,0 c-9.881,0-18.445,5.534-22.793,13.702c-1.581-0.527-3.426-0.791-5.138-0.791c-9.486,0-17.128,7.642-17.128,17.128 c0,1.186,0.132,2.372,0.395,3.426C6.719,34.783,0,42.424,0,51.515C0,61.66,8.169,69.829,18.314,69.829h63.373 C91.831,69.829,100,61.66,100,51.515C99.868,42.556,93.281,35.046,84.717,33.597z" fill="rgba(255, 255, 255, 0.15272177419354838)" transform="scale(0.3775)"></path>
</g><g transform="translate(-100 72.89473228396851) rotate(0)">
  <animateTransform attributeName="transform" type="translate" keyTimes="0;1" values="-100 72.89473228396851;578 72.89473228396851" dur="125s" repeatCount="indefinite" begin="-165.17482665501788s"></animateTransform>
  <path d="M84.717,33.597c0.791-2.503,1.186-5.138,1.186-7.773C85.903,11.594,74.308,0,60.079,0 c-9.881,0-18.445,5.534-22.793,13.702c-1.581-0.527-3.426-0.791-5.138-0.791c-9.486,0-17.128,7.642-17.128,17.128 c0,1.186,0.132,2.372,0.395,3.426C6.719,34.783,0,42.424,0,51.515C0,61.66,8.169,69.829,18.314,69.829h63.373 C91.831,69.829,100,61.66,100,51.515C99.868,42.556,93.281,35.046,84.717,33.597z" fill="rgba(255, 255, 255, 0.15272177419354838)" transform="scale(0.3775)"></path>
</g><g transform="translate(-100 80.46692667773502) rotate(0)">
  <animateTransform attributeName="transform" type="translate" keyTimes="0;1" values="-100 80.46692667773502;578 80.46692667773502" dur="125s" repeatCount="indefinite" begin="-164.93600840068885s"></animateTransform>
  <path d="M84.717,33.597c0.791-2.503,1.186-5.138,1.186-7.773C85.903,11.594,74.308,0,60.079,0 c-9.881,0-18.445,5.534-22.793,13.702c-1.581-0.527-3.426-0.791-5.138-0.791c-9.486,0-17.128,7.642-17.128,17.128 c0,1.186,0.132,2.372,0.395,3.426C6.719,34.783,0,42.424,0,51.515C0,61.66,8.169,69.829,18.314,69.829h63.373 C91.831,69.829,100,61.66,100,51.515C99.868,42.556,93.281,35.046,84.717,33.597z" fill="rgba(255, 255, 255, 0.15272177419354838)" transform="scale(0.3775)"></path>
</g><g transform="translate(-100 64.7207231696167) rotate(0)">
  <animateTransform attributeName="transform" type="translate" keyTimes="0;1" values="-100 64.7207231696167;578 64.7207231696167" dur="125s" repeatCount="indefinite" begin="-75.68147872826708s"></animateTransform>
  <path d="M84.717,33.597c0.791-2.503,1.186-5.138,1.186-7.773C85.903,11.594,74.308,0,60.079,0 c-9.881,0-18.445,5.534-22.793,13.702c-1.581-0.527-3.426-0.791-5.138-0.791c-9.486,0-17.128,7.642-17.128,17.128 c0,1.186,0.132,2.372,0.395,3.426C6.719,34.783,0,42.424,0,51.515C0,61.66,8.169,69.829,18.314,69.829h63.373 C91.831,69.829,100,61.66,100,51.515C99.868,42.556,93.281,35.046,84.717,33.597z" fill="rgba(255, 255, 255, 0.15272177419354838)" transform="scale(0.3775)"></path>
</g><g transform="translate(-100 19.27410801823937) rotate(0)">
  <animateTransform attributeName="transform" type="translate" keyTimes="0;1" values="-100 19.27410801823937;578 19.27410801823937" dur="125s" repeatCount="indefinite" begin="-53.75299495440833s"></animateTransform>
  <path d="M84.717,33.597c0.791-2.503,1.186-5.138,1.186-7.773C85.903,11.594,74.308,0,60.079,0 c-9.881,0-18.445,5.534-22.793,13.702c-1.581-0.527-3.426-0.791-5.138-0.791c-9.486,0-17.128,7.642-17.128,17.128 c0,1.186,0.132,2.372,0.395,3.426C6.719,34.783,0,42.424,0,51.515C0,61.66,8.169,69.829,18.314,69.829h63.373 C91.831,69.829,100,61.66,100,51.515C99.868,42.556,93.281,35.046,84.717,33.597z" fill="rgba(255, 255, 255, 0.15272177419354838)" transform="scale(0.3775)"></path>
</g><g transform="translate(-100 226.1512914516323) rotate(0)">
  <animateTransform attributeName="transform" type="translate" keyTimes="0;1" values="-100 226.1512914516323;578 226.1512914516323" dur="125s" repeatCount="indefinite" begin="-152.05342043369774s"></animateTransform>
  <path d="M84.717,33.597c0.791-2.503,1.186-5.138,1.186-7.773C85.903,11.594,74.308,0,60.079,0 c-9.881,0-18.445,5.534-22.793,13.702c-1.581-0.527-3.426-0.791-5.138-0.791c-9.486,0-17.128,7.642-17.128,17.128 c0,1.186,0.132,2.372,0.395,3.426C6.719,34.783,0,42.424,0,51.515C0,61.66,8.169,69.829,18.314,69.829h63.373 C91.831,69.829,100,61.66,100,51.515C99.868,42.556,93.281,35.046,84.717,33.597z" fill="rgba(255, 255, 255, 0.15272177419354838)" transform="scale(0.3775)"></path>
</g><g transform="translate(-100 103.55501694797839) rotate(0)">
  <animateTransform attributeName="transform" type="translate" keyTimes="0;1" values="-100 103.55501694797839;578 103.55501694797839" dur="125s" repeatCount="indefinite" begin="-55.624418076959s"></animateTransform>
  <path d="M84.717,33.597c0.791-2.503,1.186-5.138,1.186-7.773C85.903,11.594,74.308,0,60.079,0 c-9.881,0-18.445,5.534-22.793,13.702c-1.581-0.527-3.426-0.791-5.138-0.791c-9.486,0-17.128,7.642-17.128,17.128 c0,1.186,0.132,2.372,0.395,3.426C6.719,34.783,0,42.424,0,51.515C0,61.66,8.169,69.829,18.314,69.829h63.373 C91.831,69.829,100,61.66,100,51.515C99.868,42.556,93.281,35.046,84.717,33.597z" fill="rgba(255, 255, 255, 0.15272177419354838)" transform="scale(0.3775)"></path>
</g><g transform="translate(-100 32.90141200038801) rotate(0)">
  <animateTransform attributeName="transform" type="translate" keyTimes="0;1" values="-100 32.90141200038801;578 32.90141200038801" dur="83.33333333333333s" repeatCount="indefinite" begin="-29.13547837339825s"></animateTransform>
  <path d="M84.717,33.597c0.791-2.503,1.186-5.138,1.186-7.773C85.903,11.594,74.308,0,60.079,0 c-9.881,0-18.445,5.534-22.793,13.702c-1.581-0.527-3.426-0.791-5.138-0.791c-9.486,0-17.128,7.642-17.128,17.128 c0,1.186,0.132,2.372,0.395,3.426C6.719,34.783,0,42.424,0,51.515C0,61.66,8.169,69.829,18.314,69.829h63.373 C91.831,69.829,100,61.66,100,51.515C99.868,42.556,93.281,35.046,84.717,33.597z" fill="rgba(241, 242, 243, 0)" transform="scale(0.43875)"></path>
</g><g transform="translate(-100 184.487719373656) rotate(0)">
  <animateTransform attributeName="transform" type="translate" keyTimes="0;1" values="-100 184.487719373656;578 184.487719373656" dur="83.33333333333333s" repeatCount="indefinite" begin="-75.4086993695125s"></animateTransform>
  <path d="M84.717,33.597c0.791-2.503,1.186-5.138,1.186-7.773C85.903,11.594,74.308,0,60.079,0 c-9.881,0-18.445,5.534-22.793,13.702c-1.581-0.527-3.426-0.791-5.138-0.791c-9.486,0-17.128,7.642-17.128,17.128 c0,1.186,0.132,2.372,0.395,3.426C6.719,34.783,0,42.424,0,51.515C0,61.66,8.169,69.829,18.314,69.829h63.373 C91.831,69.829,100,61.66,100,51.515C99.868,42.556,93.281,35.046,84.717,33.597z" fill="rgba(241, 242, 243, 0)" transform="scale(0.43875)"></path>
</g><g transform="translate(-100 61.04291028742681) rotate(0)">
  <animateTransform attributeName="transform" type="translate" keyTimes="0;1" values="-100 61.04291028742681;578 61.04291028742681" dur="83.33333333333333s" repeatCount="indefinite" begin="-64.88651363718256s"></animateTransform>
  <path d="M84.717,33.597c0.791-2.503,1.186-5.138,1.186-7.773C85.903,11.594,74.308,0,60.079,0 c-9.881,0-18.445,5.534-22.793,13.702c-1.581-0.527-3.426-0.791-5.138-0.791c-9.486,0-17.128,7.642-17.128,17.128 c0,1.186,0.132,2.372,0.395,3.426C6.719,34.783,0,42.424,0,51.515C0,61.66,8.169,69.829,18.314,69.829h63.373 C91.831,69.829,100,61.66,100,51.515C99.868,42.556,93.281,35.046,84.717,33.597z" fill="rgba(241, 242, 243, 0)" transform="scale(0.43875)"></path>
</g><g transform="translate(-100 15.380313533948632) rotate(0)">
  <animateTransform attributeName="transform" type="translate" keyTimes="0;1" values="-100 15.380313533948632;578 15.380313533948632" dur="83.33333333333333s" repeatCount="indefinite" begin="-226.57180341273997s"></animateTransform>
  <path d="M84.717,33.597c0.791-2.503,1.186-5.138,1.186-7.773C85.903,11.594,74.308,0,60.079,0 c-9.881,0-18.445,5.534-22.793,13.702c-1.581-0.527-3.426-0.791-5.138-0.791c-9.486,0-17.128,7.642-17.128,17.128 c0,1.186,0.132,2.372,0.395,3.426C6.719,34.783,0,42.424,0,51.515C0,61.66,8.169,69.829,18.314,69.829h63.373 C91.831,69.829,100,61.66,100,51.515C99.868,42.556,93.281,35.046,84.717,33.597z" fill="rgba(241, 242, 243, 0)" transform="scale(0.43875)"></path>
</g><g transform="translate(-100 22.99358505290843) rotate(0)">
  <animateTransform attributeName="transform" type="translate" keyTimes="0;1" values="-100 22.99358505290843;578 22.99358505290843" dur="83.33333333333333s" repeatCount="indefinite" begin="-13.111774084669959s"></animateTransform>
  <path d="M84.717,33.597c0.791-2.503,1.186-5.138,1.186-7.773C85.903,11.594,74.308,0,60.079,0 c-9.881,0-18.445,5.534-22.793,13.702c-1.581-0.527-3.426-0.791-5.138-0.791c-9.486,0-17.128,7.642-17.128,17.128 c0,1.186,0.132,2.372,0.395,3.426C6.719,34.783,0,42.424,0,51.515C0,61.66,8.169,69.829,18.314,69.829h63.373 C91.831,69.829,100,61.66,100,51.515C99.868,42.556,93.281,35.046,84.717,33.597z" fill="rgba(241, 242, 243, 0)" transform="scale(0.43875)"></path>
</g><g transform="translate(-100 214.34560730060358) rotate(0)">
  <animateTransform attributeName="transform" type="translate" keyTimes="0;1" values="-100 214.34560730060358;578 214.34560730060358" dur="83.33333333333333s" repeatCount="indefinite" begin="-44.25729431566844s"></animateTransform>
  <path d="M84.717,33.597c0.791-2.503,1.186-5.138,1.186-7.773C85.903,11.594,74.308,0,60.079,0 c-9.881,0-18.445,5.534-22.793,13.702c-1.581-0.527-3.426-0.791-5.138-0.791c-9.486,0-17.128,7.642-17.128,17.128 c0,1.186,0.132,2.372,0.395,3.426C6.719,34.783,0,42.424,0,51.515C0,61.66,8.169,69.829,18.314,69.829h63.373 C91.831,69.829,100,61.66,100,51.515C99.868,42.556,93.281,35.046,84.717,33.597z" fill="rgba(241, 242, 243, 0)" transform="scale(0.43875)"></path>
</g><g transform="translate(-100 82.5005273992977) rotate(0)">
  <animateTransform attributeName="transform" type="translate" keyTimes="0;1" values="-100 82.5005273992977;578 82.5005273992977" dur="83.33333333333333s" repeatCount="indefinite" begin="-218.02623658347852s"></animateTransform>
  <path d="M84.717,33.597c0.791-2.503,1.186-5.138,1.186-7.773C85.903,11.594,74.308,0,60.079,0 c-9.881,0-18.445,5.534-22.793,13.702c-1.581-0.527-3.426-0.791-5.138-0.791c-9.486,0-17.128,7.642-17.128,17.128 c0,1.186,0.132,2.372,0.395,3.426C6.719,34.783,0,42.424,0,51.515C0,61.66,8.169,69.829,18.314,69.829h63.373 C91.831,69.829,100,61.66,100,51.515C99.868,42.556,93.281,35.046,84.717,33.597z" fill="rgba(241, 242, 243, 0)" transform="scale(0.43875)"></path>
</g><g transform="translate(-100 62.68318213768273) rotate(0)">
  <animateTransform attributeName="transform" type="translate" keyTimes="0;1" values="-100 62.68318213768273;578 62.68318213768273" dur="83.33333333333333s" repeatCount="indefinite" begin="-81.62275456617563s"></animateTransform>
  <path d="M84.717,33.597c0.791-2.503,1.186-5.138,1.186-7.773C85.903,11.594,74.308,0,60.079,0 c-9.881,0-18.445,5.534-22.793,13.702c-1.581-0.527-3.426-0.791-5.138-0.791c-9.486,0-17.128,7.642-17.128,17.128 c0,1.186,0.132,2.372,0.395,3.426C6.719,34.783,0,42.424,0,51.515C0,61.66,8.169,69.829,18.314,69.829h63.373 C91.831,69.829,100,61.66,100,51.515C99.868,42.556,93.281,35.046,84.717,33.597z" fill="rgba(241, 242, 243, 0)" transform="scale(0.43875)"></path>
</g><g transform="translate(-100 5.61141183402331) rotate(0)">
  <animateTransform attributeName="transform" type="translate" keyTimes="0;1" values="-100 5.61141183402331;578 5.61141183402331" dur="83.33333333333333s" repeatCount="indefinite" begin="-232.1422216819003s"></animateTransform>
  <path d="M84.717,33.597c0.791-2.503,1.186-5.138,1.186-7.773C85.903,11.594,74.308,0,60.079,0 c-9.881,0-18.445,5.534-22.793,13.702c-1.581-0.527-3.426-0.791-5.138-0.791c-9.486,0-17.128,7.642-17.128,17.128 c0,1.186,0.132,2.372,0.395,3.426C6.719,34.783,0,42.424,0,51.515C0,61.66,8.169,69.829,18.314,69.829h63.373 C91.831,69.829,100,61.66,100,51.515C99.868,42.556,93.281,35.046,84.717,33.597z" fill="rgba(241, 242, 243, 0)" transform="scale(0.43875)"></path>
</g><g transform="translate(-100 24.95919876444449) rotate(0)">
  <animateTransform attributeName="transform" type="translate" keyTimes="0;1" values="-100 24.95919876444449;578 24.95919876444449" dur="83.33333333333333s" repeatCount="indefinite" begin="-66.81886593217828s"></animateTransform>
  <path d="M84.717,33.597c0.791-2.503,1.186-5.138,1.186-7.773C85.903,11.594,74.308,0,60.079,0 c-9.881,0-18.445,5.534-22.793,13.702c-1.581-0.527-3.426-0.791-5.138-0.791c-9.486,0-17.128,7.642-17.128,17.128 c0,1.186,0.132,2.372,0.395,3.426C6.719,34.783,0,42.424,0,51.515C0,61.66,8.169,69.829,18.314,69.829h63.373 C91.831,69.829,100,61.66,100,51.515C99.868,42.556,93.281,35.046,84.717,33.597z" fill="rgba(241, 242, 243, 0)" transform="scale(0.43875)"></path>
</g><g transform="translate(-100 108.0300534097418) rotate(0)">
  <animateTransform attributeName="transform" type="translate" keyTimes="0;1" values="-100 108.0300534097418;578 108.0300534097418" dur="83.33333333333333s" repeatCount="indefinite" begin="-85.68972114918144s"></animateTransform>
  <path d="M84.717,33.597c0.791-2.503,1.186-5.138,1.186-7.773C85.903,11.594,74.308,0,60.079,0 c-9.881,0-18.445,5.534-22.793,13.702c-1.581-0.527-3.426-0.791-5.138-0.791c-9.486,0-17.128,7.642-17.128,17.128 c0,1.186,0.132,2.372,0.395,3.426C6.719,34.783,0,42.424,0,51.515C0,61.66,8.169,69.829,18.314,69.829h63.373 C91.831,69.829,100,61.66,100,51.515C99.868,42.556,93.281,35.046,84.717,33.597z" fill="rgba(241, 242, 243, 0)" transform="scale(0.43875)"></path>
</g><g transform="translate(-100 180.41566091855472) rotate(0)">
  <animateTransform attributeName="transform" type="translate" keyTimes="0;1" values="-100 180.41566091855472;578 180.41566091855472" dur="62.5s" repeatCount="indefinite" begin="-241.37507971766144s"></animateTransform>
  <path d="M84.717,33.597c0.791-2.503,1.186-5.138,1.186-7.773C85.903,11.594,74.308,0,60.079,0 c-9.881,0-18.445,5.534-22.793,13.702c-1.581-0.527-3.426-0.791-5.138-0.791c-9.486,0-17.128,7.642-17.128,17.128 c0,1.186,0.132,2.372,0.395,3.426C6.719,34.783,0,42.424,0,51.515C0,61.66,8.169,69.829,18.314,69.829h63.373 C91.831,69.829,100,61.66,100,51.515C99.868,42.556,93.281,35.046,84.717,33.597z" fill="rgba(189, 222, 255, 0.10239919354838711)" transform="scale(0.5)"></path>
</g><g transform="translate(-100 127.14473199861652) rotate(0)">
  <animateTransform attributeName="transform" type="translate" keyTimes="0;1" values="-100 127.14473199861652;578 127.14473199861652" dur="62.5s" repeatCount="indefinite" begin="-150.1879362369405s"></animateTransform>
  <path d="M84.717,33.597c0.791-2.503,1.186-5.138,1.186-7.773C85.903,11.594,74.308,0,60.079,0 c-9.881,0-18.445,5.534-22.793,13.702c-1.581-0.527-3.426-0.791-5.138-0.791c-9.486,0-17.128,7.642-17.128,17.128 c0,1.186,0.132,2.372,0.395,3.426C6.719,34.783,0,42.424,0,51.515C0,61.66,8.169,69.829,18.314,69.829h63.373 C91.831,69.829,100,61.66,100,51.515C99.868,42.556,93.281,35.046,84.717,33.597z" fill="rgba(189, 222, 255, 0.10239919354838711)" transform="scale(0.5)"></path>
</g><g transform="translate(-100 182.92469426527063) rotate(0)">
  <animateTransform attributeName="transform" type="translate" keyTimes="0;1" values="-100 182.92469426527063;578 182.92469426527063" dur="62.5s" repeatCount="indefinite" begin="-234.2221302771531s"></animateTransform>
  <path d="M84.717,33.597c0.791-2.503,1.186-5.138,1.186-7.773C85.903,11.594,74.308,0,60.079,0 c-9.881,0-18.445,5.534-22.793,13.702c-1.581-0.527-3.426-0.791-5.138-0.791c-9.486,0-17.128,7.642-17.128,17.128 c0,1.186,0.132,2.372,0.395,3.426C6.719,34.783,0,42.424,0,51.515C0,61.66,8.169,69.829,18.314,69.829h63.373 C91.831,69.829,100,61.66,100,51.515C99.868,42.556,93.281,35.046,84.717,33.597z" fill="rgba(189, 222, 255, 0.10239919354838711)" transform="scale(0.5)"></path>
</g><g transform="translate(-100 146.4616801751755) rotate(0)">
  <animateTransform attributeName="transform" type="translate" keyTimes="0;1" values="-100 146.4616801751755;578 146.4616801751755" dur="62.5s" repeatCount="indefinite" begin="-59.73543112627272s"></animateTransform>
  <path d="M84.717,33.597c0.791-2.503,1.186-5.138,1.186-7.773C85.903,11.594,74.308,0,60.079,0 c-9.881,0-18.445,5.534-22.793,13.702c-1.581-0.527-3.426-0.791-5.138-0.791c-9.486,0-17.128,7.642-17.128,17.128 c0,1.186,0.132,2.372,0.395,3.426C6.719,34.783,0,42.424,0,51.515C0,61.66,8.169,69.829,18.314,69.829h63.373 C91.831,69.829,100,61.66,100,51.515C99.868,42.556,93.281,35.046,84.717,33.597z" fill="rgba(189, 222, 255, 0.10239919354838711)" transform="scale(0.5)"></path>
</g><g transform="translate(-100 115.7519033875175) rotate(0)">
  <animateTransform attributeName="transform" type="translate" keyTimes="0;1" values="-100 115.7519033875175;578 115.7519033875175" dur="62.5s" repeatCount="indefinite" begin="-236.72625922794148s"></animateTransform>
  <path d="M84.717,33.597c0.791-2.503,1.186-5.138,1.186-7.773C85.903,11.594,74.308,0,60.079,0 c-9.881,0-18.445,5.534-22.793,13.702c-1.581-0.527-3.426-0.791-5.138-0.791c-9.486,0-17.128,7.642-17.128,17.128 c0,1.186,0.132,2.372,0.395,3.426C6.719,34.783,0,42.424,0,51.515C0,61.66,8.169,69.829,18.314,69.829h63.373 C91.831,69.829,100,61.66,100,51.515C99.868,42.556,93.281,35.046,84.717,33.597z" fill="rgba(189, 222, 255, 0.10239919354838711)" transform="scale(0.5)"></path>
</g><g transform="translate(-100 99.95901244444937) rotate(0)">
  <animateTransform attributeName="transform" type="translate" keyTimes="0;1" values="-100 99.95901244444937;578 99.95901244444937" dur="62.5s" repeatCount="indefinite" begin="-67.74693770893737s"></animateTransform>
  <path d="M84.717,33.597c0.791-2.503,1.186-5.138,1.186-7.773C85.903,11.594,74.308,0,60.079,0 c-9.881,0-18.445,5.534-22.793,13.702c-1.581-0.527-3.426-0.791-5.138-0.791c-9.486,0-17.128,7.642-17.128,17.128 c0,1.186,0.132,2.372,0.395,3.426C6.719,34.783,0,42.424,0,51.515C0,61.66,8.169,69.829,18.314,69.829h63.373 C91.831,69.829,100,61.66,100,51.515C99.868,42.556,93.281,35.046,84.717,33.597z" fill="rgba(189, 222, 255, 0.10239919354838711)" transform="scale(0.5)"></path>
</g><g transform="translate(-100 68.47118791125465) rotate(0)">
  <animateTransform attributeName="transform" type="translate" keyTimes="0;1" values="-100 68.47118791125465;578 68.47118791125465" dur="62.5s" repeatCount="indefinite" begin="-71.91548905471696s"></animateTransform>
  <path d="M84.717,33.597c0.791-2.503,1.186-5.138,1.186-7.773C85.903,11.594,74.308,0,60.079,0 c-9.881,0-18.445,5.534-22.793,13.702c-1.581-0.527-3.426-0.791-5.138-0.791c-9.486,0-17.128,7.642-17.128,17.128 c0,1.186,0.132,2.372,0.395,3.426C6.719,34.783,0,42.424,0,51.515C0,61.66,8.169,69.829,18.314,69.829h63.373 C91.831,69.829,100,61.66,100,51.515C99.868,42.556,93.281,35.046,84.717,33.597z" fill="rgba(189, 222, 255, 0.10239919354838711)" transform="scale(0.5)"></path>
</g><g transform="translate(-100 13.196623096502863) rotate(0)">
  <animateTransform attributeName="transform" type="translate" keyTimes="0;1" values="-100 13.196623096502863;578 13.196623096502863" dur="62.5s" repeatCount="indefinite" begin="-169.49181367204545s"></animateTransform>
  <path d="M84.717,33.597c0.791-2.503,1.186-5.138,1.186-7.773C85.903,11.594,74.308,0,60.079,0 c-9.881,0-18.445,5.534-22.793,13.702c-1.581-0.527-3.426-0.791-5.138-0.791c-9.486,0-17.128,7.642-17.128,17.128 c0,1.186,0.132,2.372,0.395,3.426C6.719,34.783,0,42.424,0,51.515C0,61.66,8.169,69.829,18.314,69.829h63.373 C91.831,69.829,100,61.66,100,51.515C99.868,42.556,93.281,35.046,84.717,33.597z" fill="rgba(189, 222, 255, 0.10239919354838711)" transform="scale(0.5)"></path>
</g><g transform="translate(-100 212.84178283563452) rotate(0)">
  <animateTransform attributeName="transform" type="translate" keyTimes="0;1" values="-100 212.84178283563452;578 212.84178283563452" dur="62.5s" repeatCount="indefinite" begin="-191.0453566764585s"></animateTransform>
  <path d="M84.717,33.597c0.791-2.503,1.186-5.138,1.186-7.773C85.903,11.594,74.308,0,60.079,0 c-9.881,0-18.445,5.534-22.793,13.702c-1.581-0.527-3.426-0.791-5.138-0.791c-9.486,0-17.128,7.642-17.128,17.128 c0,1.186,0.132,2.372,0.395,3.426C6.719,34.783,0,42.424,0,51.515C0,61.66,8.169,69.829,18.314,69.829h63.373 C91.831,69.829,100,61.66,100,51.515C99.868,42.556,93.281,35.046,84.717,33.597z" fill="rgba(189, 222, 255, 0.10239919354838711)" transform="scale(0.5)"></path>
</g><g transform="translate(-100 244.31540556110232) rotate(0)">
  <animateTransform attributeName="transform" type="translate" keyTimes="0;1" values="-100 244.31540556110232;578 244.31540556110232" dur="62.5s" repeatCount="indefinite" begin="-59.421075331764996s"></animateTransform>
  <path d="M84.717,33.597c0.791-2.503,1.186-5.138,1.186-7.773C85.903,11.594,74.308,0,60.079,0 c-9.881,0-18.445,5.534-22.793,13.702c-1.581-0.527-3.426-0.791-5.138-0.791c-9.486,0-17.128,7.642-17.128,17.128 c0,1.186,0.132,2.372,0.395,3.426C6.719,34.783,0,42.424,0,51.515C0,61.66,8.169,69.829,18.314,69.829h63.373 C91.831,69.829,100,61.66,100,51.515C99.868,42.556,93.281,35.046,84.717,33.597z" fill="rgba(189, 222, 255, 0.10239919354838711)" transform="scale(0.5)"></path>
</g><g transform="translate(-100 71.641584049188) rotate(0)">
  <animateTransform attributeName="transform" type="translate" keyTimes="0;1" values="-100 71.641584049188;578 71.641584049188" dur="62.5s" repeatCount="indefinite" begin="-170.7451574172256s"></animateTransform>
  <path d="M84.717,33.597c0.791-2.503,1.186-5.138,1.186-7.773C85.903,11.594,74.308,0,60.079,0 c-9.881,0-18.445,5.534-22.793,13.702c-1.581-0.527-3.426-0.791-5.138-0.791c-9.486,0-17.128,7.642-17.128,17.128 c0,1.186,0.132,2.372,0.395,3.426C6.719,34.783,0,42.424,0,51.515C0,61.66,8.169,69.829,18.314,69.829h63.373 C91.831,69.829,100,61.66,100,51.515C99.868,42.556,93.281,35.046,84.717,33.597z" fill="rgba(189, 222, 255, 0.10239919354838711)" transform="scale(0.5)"></path>
</g><g transform="translate(-100 211.6215681979392) rotate(0)">
  <animateTransform attributeName="transform" type="translate" keyTimes="0;1" values="-100 211.6215681979392;578 211.6215681979392" dur="62.5s" repeatCount="indefinite" begin="-172.75863900524675s"></animateTransform>
  <path d="M84.717,33.597c0.791-2.503,1.186-5.138,1.186-7.773C85.903,11.594,74.308,0,60.079,0 c-9.881,0-18.445,5.534-22.793,13.702c-1.581-0.527-3.426-0.791-5.138-0.791c-9.486,0-17.128,7.642-17.128,17.128 c0,1.186,0.132,2.372,0.395,3.426C6.719,34.783,0,42.424,0,51.515C0,61.66,8.169,69.829,18.314,69.829h63.373 C91.831,69.829,100,61.66,100,51.515C99.868,42.556,93.281,35.046,84.717,33.597z" fill="rgba(189, 222, 255, 0.10239919354838711)" transform="scale(0.5)"></path>
</g></g>
</svg>