<?xml version="1.0" encoding="UTF-8" standalone="no"?>
<svg
   xmlns:dc="http://purl.org/dc/elements/1.1/"
   xmlns:cc="http://creativecommons.org/ns#"
   xmlns:rdf="http://www.w3.org/1999/02/22-rdf-syntax-ns#"
   xmlns:svg="http://www.w3.org/2000/svg"
   xmlns="http://www.w3.org/2000/svg"
   xmlns:sodipodi="http://sodipodi.sourceforge.net/DTD/sodipodi-0.dtd"
   xmlns:inkscape="http://www.inkscape.org/namespaces/inkscape"
   version="1.1"
   id="svg2"
   xml:space="preserve"
   width="2829.3333"
   height="2829.3333"
   viewBox="0 0 2829.3333 2829.3333"
   sodipodi:docname="3126_R1NUIENBUiAyNTYxLTE1.eps"><metadata
     id="metadata8"><rdf:RDF><cc:Work
         rdf:about=""><dc:format>image/svg+xml</dc:format><dc:type
           rdf:resource="http://purl.org/dc/dcmitype/StillImage" /></cc:Work></rdf:RDF></metadata><defs
     id="defs6" /><sodipodi:namedview
     pagecolor="#ffffff"
     bordercolor="#666666"
     borderopacity="1"
     objecttolerance="10"
     gridtolerance="10"
     guidetolerance="10"
     inkscape:pageopacity="0"
     inkscape:pageshadow="2"
     inkscape:window-width="640"
     inkscape:window-height="480"
     id="namedview4" /><g
     id="g10"
     inkscape:groupmode="layer"
     inkscape:label="ink_ext_XXXXXX"
     transform="matrix(1.3333333,0,0,-1.3333333,0,2829.3333)"><g
       id="g12"
       transform="scale(0.1)"><path
         d="M 3341.72,6787.6 12003.8,11843.2 17852.4,8517.7 9169.61,3324.2 3341.72,6787.6"
         style="fill:#444f9e;fill-opacity:1;fill-rule:nonzero;stroke:none"
         id="path14" /><path
         d="m 9169.61,3324.2 -16.48,-386.4 -5827.93,3463.4 16.52,386.4 5827.89,-3463.4"
         style="fill:#343b7c;fill-opacity:1;fill-rule:nonzero;stroke:none"
         id="path16" /><path
         d="m 17852.4,8517.7 -16.5,-386.5 -8682.77,-5193.4 16.48,386.4 8682.79,5193.5"
         style="fill:#343b7c;fill-opacity:1;fill-rule:nonzero;stroke:none"
         id="path18" /><path
         d="m 4145.7,6992.7 -492.38,286.1 8105.58,4679.8 492.4,-286.1 -8105.6,-4679.8"
         style="fill:#444f9e;fill-opacity:1;fill-rule:nonzero;stroke:none"
         id="path20" /><path
         d="m 11528.4,11785.2 -492.3,286.2 -0.9,316.3 492.3,-286.1 0.9,-316.4"
         style="fill:#b8d4f1;fill-opacity:1;fill-rule:nonzero;stroke:none"
         id="path22" /><path
         d="m 11526.3,12544.4 -492.4,286.2 -0.9,316.3 492.4,-286.1 0.9,-316.4"
         style="fill:#b8d4f1;fill-opacity:1;fill-rule:nonzero;stroke:none"
         id="path24" /><path
         d="m 11524.1,13304 -492.3,286.1 -0.9,316.3 492.3,-286 0.9,-316.4"
         style="fill:#b8d4f1;fill-opacity:1;fill-rule:nonzero;stroke:none"
         id="path26" /><path
         d="m 4865.55,7938.5 -492.35,286 6662.9,3846.9 492.3,-286.2 -6662.85,-3846.7"
         style="fill:#b8d4f1;fill-opacity:1;fill-rule:nonzero;stroke:none"
         id="path28" /><path
         d="m 4864.65,8254.8 -492.31,286.1 6662.86,3846.8 492.3,-286.1 -6662.85,-3846.8"
         style="fill:#80ace0;fill-opacity:1;fill-rule:nonzero;stroke:none"
         id="path30" /><path
         d="m 4863.44,8697.6 -492.39,286.1 6662.85,3846.9 492.4,-286.2 -6662.86,-3846.8"
         style="fill:#b8d4f1;fill-opacity:1;fill-rule:nonzero;stroke:none"
         id="path32" /><path
         d="m 4862.5,9014 -492.34,286.1 6662.84,3846.8 492.4,-286.1 L 4862.5,9014"
         style="fill:#80ace0;fill-opacity:1;fill-rule:nonzero;stroke:none"
         id="path34" /><path
         d="m 4861.25,9457.2 -492.3,286.1 6662.85,3846.8 492.3,-286.1 -6662.85,-3846.8"
         style="fill:#b8d4f1;fill-opacity:1;fill-rule:nonzero;stroke:none"
         id="path36" /><path
         d="m 4860.39,9773.5 -492.38,286.1 6662.89,3846.8 492.3,-286 -6662.81,-3846.9"
         style="fill:#80ace0;fill-opacity:1;fill-rule:nonzero;stroke:none"
         id="path38" /><path
         d="m 9255.12,12831.4 -492.39,286.1 2172.97,1254.6 492.4,-286.2 -2172.98,-1254.5"
         style="fill:#b8d4f1;fill-opacity:1;fill-rule:nonzero;stroke:none"
         id="path40" /><path
         d="m 9254.73,12956.8 -492.31,286.1 2172.98,1254.6 492.4,-286.1 -2173.07,-1254.6"
         style="fill:#444f9e;fill-opacity:1;fill-rule:nonzero;stroke:none"
         id="path42" /><path
         d="m 10974.3,14501.3 c 164.1,-95.4 328.2,-190.8 492.3,-286.1 9.9,-5.8 16,-17.9 16,-35.1 0.1,-34.5 -24.5,-76.8 -54.5,-94.2 l -492.4,286.2 c 30.1,17.3 54.7,59.5 54.6,94.1 -0.1,17.3 -6.1,29.4 -16,35.1"
         style="fill:#b8d4f1;fill-opacity:1;fill-rule:nonzero;stroke:none"
         id="path44" /><path
         d="m 10814.6,13950.4 -492.3,286.2 564.7,326 492.3,-286.2 -564.7,-326"
         style="fill:#b8d4f1;fill-opacity:1;fill-rule:nonzero;stroke:none"
         id="path46" /><path
         d="m 10974.3,14501.3 c 164.1,-95.4 328.2,-190.8 492.3,-286.1 -9.9,5.7 -23.7,4.9 -38.8,-3.8 l -492.4,286.1 c 15.1,8.8 28.9,9.5 38.9,3.8"
         style="fill:#444f9e;fill-opacity:1;fill-rule:nonzero;stroke:none"
         id="path48" /><path
         d="m 11379.3,14276.4 -492.3,286.2 -2.6,904.7 492.4,-286.1 2.5,-904.8"
         style="fill:#b8d4f1;fill-opacity:1;fill-rule:nonzero;stroke:none"
         id="path50" /><path
         d="m 10061.5,13515.6 -492.36,286.2 564.96,326.1 492.3,-286.1 -564.9,-326.2"
         style="fill:#b8d4f1;fill-opacity:1;fill-rule:nonzero;stroke:none"
         id="path52" /><path
         d="m 10812.1,14855.2 -492.4,286.1 564.7,326 492.4,-286.1 -564.7,-326"
         style="fill:#fcdd57;fill-opacity:1;fill-rule:nonzero;stroke:none"
         id="path54" /><path
         d="m 10814.6,13950.5 -492.3,286.1 -2.6,904.7 492.4,-286.1 2.5,-904.7"
         style="fill:#fcdd57;fill-opacity:1;fill-rule:nonzero;stroke:none"
         id="path56" /><path
         d="m 8724.06,13113.7 c 9.89,-5.7 23.6,-4.9 38.67,3.8 l 492.39,-286.1 c -15.12,-8.7 -28.83,-9.6 -38.71,-3.8 -147.7,85.8 -344.69,200.3 -492.35,286.1"
         style="fill:#b8d4f1;fill-opacity:1;fill-rule:nonzero;stroke:none"
         id="path58" /><path
         d="m 9308.28,13080.8 -492.34,286.1 564.92,326.2 492.38,-286.2 -564.96,-326.1"
         style="fill:#b8d4f1;fill-opacity:1;fill-rule:nonzero;stroke:none"
         id="path60" /><path
         d="m 9216.41,12827.6 -492.35,286.1 c -9.8,5.7 -15.82,17.8 -15.9,34.9 -0.11,34.9 24.22,77 54.26,94.3 l 492.31,-286.1 c -29.96,-17.4 -54.34,-59.5 -54.22,-94.3 0.04,-17.1 6.13,-29.2 15.9,-34.9"
         style="fill:#444f9e;fill-opacity:1;fill-rule:nonzero;stroke:none"
         id="path62" /><path
         d="m 12235.7,17188.4 -492.4,286.1 -2.9,1042.8 492.3,-286.1 3,-1042.8"
         style="fill:#444f9e;fill-opacity:1;fill-rule:nonzero;stroke:none"
         id="path64" /><path
         d="m 10626.4,13841.8 -492.3,286.1 -5.5,1915.4 492.4,-286.1 5.4,-1915.4"
         style="fill:#b8d4f1;fill-opacity:1;fill-rule:nonzero;stroke:none"
         id="path66" /><path
         d="m 10061.5,13515.6 -492.36,286.2 -5.47,1915.4 492.43,-286.2 5.4,-1915.4"
         style="fill:#44c0b9;fill-opacity:1;fill-rule:nonzero;stroke:none"
         id="path68" /><path
         d="m 10056.1,15431 -492.43,286.2 564.93,326.1 492.4,-286.1 -564.9,-326.2"
         style="fill:#44c0b9;fill-opacity:1;fill-rule:nonzero;stroke:none"
         id="path70" /><path
         d="m 9308.32,13080.8 -492.38,286.1 -3.6,1277.2 492.35,-286.2 3.63,-1277.1"
         style="fill:#444f9e;fill-opacity:1;fill-rule:nonzero;stroke:none"
         id="path72" /><path
         d="m 9873.24,13406.9 -492.38,286.2 -3.59,1277.1 492.38,-286.1 3.59,-1277.2"
         style="fill:#b8d4f1;fill-opacity:1;fill-rule:nonzero;stroke:none"
         id="path74" /><path
         d="m 9304.69,14357.9 -492.35,286.2 564.93,326.1 492.38,-286.1 -564.96,-326.2"
         style="fill:#444f9e;fill-opacity:1;fill-rule:nonzero;stroke:none"
         id="path76" /><path
         d="m 8839.88,12540 -492.38,286.1 -6.33,2236.9 492.35,-286.1 6.36,-2236.9"
         style="fill:#b8d4f1;fill-opacity:1;fill-rule:nonzero;stroke:none"
         id="path78" /><path
         d="m 7276.13,11637.2 -492.34,286 1563.71,902.9 492.38,-286.1 -1563.75,-902.8"
         style="fill:#b8d4f1;fill-opacity:1;fill-rule:nonzero;stroke:none"
         id="path80" /><path
         d="m 7276.13,11637.2 -492.34,286 -6.33,2237 492.34,-286.1 6.33,-2236.9"
         style="fill:#80ace0;fill-opacity:1;fill-rule:nonzero;stroke:none"
         id="path82" /><path
         d="m 7269.8,13874.1 -492.34,286.1 1563.71,902.8 492.35,-286.1 -1563.72,-902.8"
         style="fill:#80ace0;fill-opacity:1;fill-rule:nonzero;stroke:none"
         id="path84" /><path
         d="m 6246.29,13446.9 c -17.7,10.3 -35.39,20.4 -53.13,30.5 -6.17,4 -12.46,7.9 -18.82,11.5 55.58,-32.2 129.68,-75.3 185.23,-107.6 -38.79,22.6 -77.73,45.1 -116.6,67.6 38.87,-22.5 77.81,-45 116.6,-67.6 l 14.81,-8.6 c -50.59,29.4 -101.25,58.7 -151.96,87.9 7.97,-4.5 15.9,-9.1 23.87,-13.7"
         style="fill:#b8d4f1;fill-opacity:1;fill-rule:nonzero;stroke:none"
         id="path86" /><path
         d="m 6620.86,13160.6 8.87,-2.5 9.29,-2.7 9.53,-2.9 9.81,-3.1 9.92,-3.1 10.08,-3.2 10.12,-3.3 10,-3.3 9.92,-3.2 9.8,-3.2 9.5,-3 9.25,-2.9 8.83,-2.7 8.44,-2.5 7.93,-2.2 7.3,-2 -7.3,2 -7.93,2.2 -8.44,2.5 -8.83,2.7 -9.25,2.9 -9.5,3 -9.8,3.2 -9.92,3.2 -10,3.3 -10.12,3.3 -10.08,3.2 -9.92,3.1 -9.81,3.1 -9.53,2.9 -9.29,2.7 -8.87,2.5 m -1.64,1.3 -9.26,3.1 -9.65,3.1 -9.92,3.3 -10.23,3.3 -10.43,3.3 -10.55,3.3 -10.74,3.4 -10.82,3.3 -10.74,3.3 -10.83,3.2 -10.74,3.2 -10.66,3.1 -10.39,3 -10.24,2.9 -9.96,2.8 -9.61,2.7 9.61,-2.7 9.96,-2.8 10.24,-2.9 10.39,-3 10.66,-3.1 10.74,-3.2 10.83,-3.2 10.74,-3.3 10.82,-3.3 10.74,-3.4 10.55,-3.3 10.43,-3.3 10.23,-3.3 9.92,-3.3 9.65,-3.1 9.26,-3.1 m 69.92,-86.6 -13.59,7.9 -14.07,8.2 -14.49,8.4 -14.8,8.6 -15.08,8.8 -15.31,8.8 -15.39,9 -15.51,9 -15.47,9 -15.47,8.9 -15.23,9 -15.12,8.8 -14.77,8.5 -14.49,8.4 -14.02,8.2 -13.56,7.9 13.56,-7.9 14.02,-8.2 14.49,-8.4 14.77,-8.5 15.12,-8.8 15.23,-9 15.47,-8.9 15.47,-9 15.51,-9 15.39,-9 15.31,-8.8 15.08,-8.8 14.8,-8.6 14.49,-8.4 14.07,-8.2 13.59,-7.9 -3.94,-0.5 -4.15,-0.6 -4.21,-0.6 -4.42,-0.6 -4.45,-0.7 -4.61,-0.6 -4.61,-0.8 -4.69,-0.8 -4.68,-0.8 -4.73,-0.8 -4.69,-0.8 -4.65,-0.9 -4.57,-0.9 -4.53,-0.8 -4.37,-0.9 -4.3,-0.9 4.3,0.9 4.37,0.9 4.53,0.8 4.57,0.9 4.65,0.9 4.69,0.8 4.73,0.8 4.68,0.8 4.69,0.8 4.61,0.8 4.61,0.6 4.45,0.7 4.42,0.6 4.21,0.6 4.15,0.6 3.94,0.5 v 0 h 0.04 l 0.08,-0.1 v 0 h 0.04 0.04 v 0 h 0.04 v -0.1 h 0.07 0.04 l 0.04,-0.1 h 0.04 v 0 h 0.08 -0.08 v 0 h -0.04 l -0.04,0.1 h -0.04 -0.07 v 0.1 h -0.04 v 0 h -0.04 -0.04 v 0 l -0.08,0.1 h -0.04 v 0 m -159.69,-52.8 2.43,11.2 3.2,9 3.9,7.3 4.54,5.5 5.15,4.2 5.67,2.8 6.09,1.8 6.45,1 6.64,0.3 6.83,-0.3 6.92,-0.7 6.87,-0.8 6.72,-0.9 6.44,-0.7 6.1,-0.4 h 5.58 -5.58 l -6.1,0.4 -6.44,0.7 -6.72,0.9 -6.87,0.8 -6.92,0.7 -6.83,0.3 -6.64,-0.3 -6.45,-1 -6.09,-1.8 -5.67,-2.8 -5.15,-4.2 -4.54,-5.5 -3.9,-7.3 -3.2,-9 -2.43,-11.2 11.41,-6.6 11.76,-6.8 12.11,-7 12.42,-7.3 12.65,-7.3 12.82,-7.5 12.93,-7.5 13,-7.5 13.01,-7.6 12.93,-7.5 12.81,-7.5 12.62,-7.3 12.46,-7.2 12.15,-7 11.76,-6.9 11.37,-6.6 -11.37,6.6 -11.76,6.9 -12.15,7 -12.46,7.2 -12.62,7.3 -12.81,7.5 -12.93,7.5 -13.01,7.6 -13,7.5 -12.93,7.5 -12.82,7.5 -12.65,7.3 -12.42,7.3 -12.11,7 -11.76,6.8 -11.41,6.6 m -307.03,438.1 c 50.74,-29.1 101.37,-58.5 151.96,-87.9 l 292.34,-169.8 c 176.72,-102.8 286.37,-321.1 287.23,-631.3 -78.29,127.2 -148.17,226.3 -229.03,335.9 80.86,-109.6 150.74,-208.7 229.03,-335.9 -164.15,95.3 -328.25,190.7 -492.39,286.1 -0.66,234.2 -63.28,416.1 -169.96,535.3 38.13,-22.2 76.25,-44.4 114.42,-66.6 120.35,-69.8 240.7,-139.8 361.05,-209.7 -16.68,9.7 -38.94,22.6 -55.55,32.2 -29.76,17.3 -59.49,34.6 -89.22,51.9 -110.27,64 -220.46,128.1 -330.7,192.2 -29.37,32.7 -61.99,60.8 -97.58,83.9 9.5,-5.4 18.95,-10.8 28.4,-16.3"
         style="fill:#b8d4f1;fill-opacity:1;fill-rule:nonzero;stroke:none"
         id="path88" /><path
         d="m 6174.34,13488.9 c 82.07,-47.6 164.14,-95.3 246.17,-143 82.11,-47.7 164.14,-95.3 246.21,-143 -179.06,104 -427.11,89.4 -700.82,-68.6 l -492.35,286.1 c 273.72,158 521.76,172.7 700.79,68.5"
         style="fill:#fcdd57;fill-opacity:1;fill-rule:nonzero;stroke:none"
         id="path90" /><path
         d="m 11376.8,15181.2 2.5,-904.8 -564.7,-325.9 -2.5,904.7 564.7,326"
         style="fill:#fcdd57;fill-opacity:1;fill-rule:nonzero;stroke:none"
         id="path92" /><path
         d="m 10621,15757.2 5.4,-1915.4 -564.9,-326.2 -5.4,1915.4 564.9,326.2"
         style="fill:#44c0b9;fill-opacity:1;fill-rule:nonzero;stroke:none"
         id="path94" /><path
         d="m 9869.65,14684.1 3.59,-1277.2 -564.92,-326.1 -3.63,1277.1 564.96,326.2"
         style="fill:#444f9e;fill-opacity:1;fill-rule:nonzero;stroke:none"
         id="path96" /><path
         d="m 4865.55,7938.5 -492.35,286 -0.86,316.4 492.31,-286.1 0.9,-316.3"
         style="fill:#80ace0;fill-opacity:1;fill-rule:nonzero;stroke:none"
         id="path98" /><path
         d="m 4863.44,8697.6 -492.39,286.1 -0.89,316.4 492.34,-286.1 0.94,-316.4"
         style="fill:#80ace0;fill-opacity:1;fill-rule:nonzero;stroke:none"
         id="path100" /><path
         d="m 6239.41,12009.4 c 139.5,276.3 222.93,575.3 222.15,848.3 164.14,-95.4 328.24,-190.8 492.39,-286.1 0.74,-273 -82.74,-572.1 -222.23,-848.4 -179.73,-356.3 -452.81,-674.8 -759.42,-851.8 -23.43,-13.5 -46.71,-26 -69.72,-37.5 -64.69,48.1 -235.78,175.5 -427.7,320.7 l 5.08,2.9 c 306.56,177 579.69,495.6 759.45,851.9"
         style="fill:#b8d4f1;fill-opacity:1;fill-rule:nonzero;stroke:none"
         id="path102" /><path
         d="m 8833.52,14776.9 6.36,-2236.9 -1563.75,-902.8 -6.33,2236.9 1563.72,902.8"
         style="fill:#80ace0;fill-opacity:1;fill-rule:nonzero;stroke:none"
         id="path104" /><path
         d="m 11523.2,13620.4 0.9,-316.4 -6662.85,-3846.8 -0.86,316.3 6662.81,3846.9"
         style="fill:#80ace0;fill-opacity:1;fill-rule:nonzero;stroke:none"
         id="path106" /><path
         d="m 4861.25,9457.2 -492.3,286.1 -0.94,316.3 492.38,-286.1 0.86,-316.3"
         style="fill:#80ace0;fill-opacity:1;fill-rule:nonzero;stroke:none"
         id="path108" /><path
         d="m 4826.21,11065.1 c 172.97,-76.2 399.96,-52.6 648.67,89.5 191.92,-145.2 363.01,-272.6 427.7,-320.7 -223.28,-110.9 -426.17,-124.4 -584.03,-54.9 -164.14,95.4 -328.24,190.8 -492.34,286.1"
         style="fill:#b8d4f1;fill-opacity:1;fill-rule:nonzero;stroke:none"
         id="path110" /><path
         d="m 11525.4,12860.8 0.9,-316.4 -6662.86,-3846.8 -0.94,316.4 6662.9,3846.8"
         style="fill:#80ace0;fill-opacity:1;fill-rule:nonzero;stroke:none"
         id="path112" /><path
         d="m 4826.13,11065.1 h 0.08 c 164.1,-95.3 328.2,-190.7 492.34,-286.1 h -0.07 c -164.14,95.4 -328.21,190.8 -492.35,286.1"
         style="fill:#b8d4f1;fill-opacity:1;fill-rule:nonzero;stroke:none"
         id="path114" /><path
         d="m 4779.61,11088.8 c 15,-8.7 30.55,-16.6 46.52,-23.7 164.14,-95.3 328.21,-190.7 492.35,-286.1 -15.98,7.1 -31.53,15 -46.53,23.7 -147.69,85.9 -344.65,200.3 -492.34,286.1"
         style="fill:#b8d4f1;fill-opacity:1;fill-rule:nonzero;stroke:none"
         id="path116" /><path
         d="m 5318.55,10779 -492.34,286.1 c 24.42,46.4 488.79,928.3 650.55,1224 L 5969.1,12003 c -161.76,-295.7 -626.13,-1177.6 -650.55,-1224"
         style="fill:#444f9e;fill-opacity:1;fill-rule:nonzero;stroke:none"
         id="path118" /><path
         d="m 5969.1,12003 762.62,-279.8 c -179.73,-356.3 -452.81,-674.8 -759.42,-851.8 -250.58,-144.7 -479.57,-169.1 -653.75,-92.4 24.42,46.4 488.79,928.3 650.55,1224"
         style="fill:#444f9e;fill-opacity:1;fill-rule:nonzero;stroke:none"
         id="path120" /><path
         d="m 5969.1,12003 -492.34,286.1 762.65,-279.7 492.31,-286.2 -762.62,279.8"
         style="fill:#444f9e;fill-opacity:1;fill-rule:nonzero;stroke:none"
         id="path122" /><path
         d="m 5969.1,12003 c -161.76,-295.7 -626.13,-1177.6 -650.55,-1224 -203.94,90 -332.96,318.3 -333.94,655.6 l 984.49,568.4"
         style="fill:#44c0b9;fill-opacity:1;fill-rule:nonzero;stroke:none"
         id="path124" /><path
         d="m 4984.61,11434.6 -492.31,286.1 984.46,568.4 492.34,-286.1 -984.49,-568.4"
         style="fill:#44c0b9;fill-opacity:1;fill-rule:nonzero;stroke:none"
         id="path126" /><path
         d="m 5271.95,10802.7 c -164.14,95.4 -328.2,190.8 -492.34,286.1 -176.84,102.8 -286.45,321.2 -287.31,631.9 l 492.31,-286.1 c 0.86,-310.8 110.51,-529.1 287.34,-631.9"
         style="fill:#44c0b9;fill-opacity:1;fill-rule:nonzero;stroke:none"
         id="path128" /><path
         d="m 4865.55,7938.5 -0.9,316.3 6662.85,3846.8 0.9,-316.4 -6662.85,-3846.7 m -3.05,1075.5 6662.9,3846.8 0.9,-316.4 -6662.86,-3846.8 -0.94,316.4 m -2.11,759.5 6662.81,3846.9 0.9,-316.5 -6662.85,-3846.7 -0.86,316.3 m 1105.51,3360.8 c 543.87,313.9 986.25,61.8 988.05,-562.7 0.74,-273 -82.74,-572.1 -222.23,-848.4 -179.73,-356.3 -452.85,-674.8 -759.42,-851.8 -250.58,-144.7 -479.6,-169.1 -653.75,-92.4 -203.98,90 -332.96,318.3 -333.94,655.6 -1.76,624.5 437.42,1385.6 981.29,1699.7 m 2867.62,1642.6 6.36,-2236.9 -1563.75,-902.8 -6.33,2236.9 1563.72,902.8 m 421.21,-1820.1 2173.07,1254.5 c 30,17.4 54.7,3.7 54.8,-31.2 0.1,-34.5 -24.5,-76.8 -54.5,-94.2 L 9255.12,12831.4 c -30.04,-17.4 -54.53,-3.4 -54.61,31.1 -0.12,34.8 24.22,76.9 54.22,94.3 m 614.92,1727.3 3.59,-1277.2 -564.96,-326.1 -3.59,1277.1 564.96,326.2 m 751.35,1073.1 5.4,-1915.4 -564.9,-326.2 -5.4,1915.4 564.9,326.2 m 755.7,-576 2.6,-904.8 -564.7,-326 -2.5,904.8 564.6,326 m 859,2007.2 -8105.66,-4679.8 15.66,-5515.9 8105.6,4679.7 -15.6,5516"
         style="fill:#b8d4f1;fill-opacity:1;fill-rule:nonzero;stroke:none"
         id="path130" /><path
         d="m 11527.5,12101.6 -6662.85,-3846.8 0.9,-316.3 6662.85,3846.7 -0.9,316.4"
         style="fill:#80ace0;fill-opacity:1;fill-rule:nonzero;stroke:none"
         id="path132" /><path
         d="m 5627.54,12870.1 c 30.16,30.1 60.94,59 92.42,86.5 -31.48,-27.5 -62.26,-56.4 -92.42,-86.5 z m -211.56,-246.9 c -39.22,-53.2 -76.41,-108.4 -111.25,-165.1 34.84,56.7 72.03,111.9 111.25,165.1 z m -145.32,-222.3 c -22.18,-38.4 -43.32,-77.5 -63.32,-117 20,39.5 41.14,78.6 63.32,117 z m 320.36,951.2 -117.47,68.3 c -169.49,-97.9 -328.75,-239.1 -467.73,-406.1 l 585.2,337.8"
         style="fill:#fcdd57;fill-opacity:1;fill-rule:nonzero;stroke:none"
         id="path134" /><path
         d="m 4130.04,12508.6 -492.31,286.1 8105.57,4679.8 492.4,-286.1 -8105.66,-4679.8"
         style="fill:#b8d4f1;fill-opacity:1;fill-rule:nonzero;stroke:none"
         id="path136" /><path
         d="m 11267.6,17701.6 c -0.2,74.8 -26.6,127.5 -69.2,152.2 l 492.4,-286.1 c 42.6,-24.8 69,-77.3 69.2,-152.2 0.4,-150.7 -105.4,-333.9 -236.5,-409.7 l -492.4,286.1 c 131.1,75.8 236.9,259 236.5,409.7"
         style="fill:#44c0b9;fill-opacity:1;fill-rule:nonzero;stroke:none"
         id="path138" /><path
         d="m 10862.2,17275.4 c 43.2,-25.1 102.9,-21.6 168.9,16.5 l 492.4,-286.1 c -66.1,-38.1 -125.8,-41.6 -168.9,-16.6 -147.7,85.9 -344.7,200.3 -492.4,286.2"
         style="fill:#44c0b9;fill-opacity:1;fill-rule:nonzero;stroke:none"
         id="path140" /><path
         d="m 11198.4,17853.8 c 164.2,-95.3 328.3,-190.7 492.4,-286.1 -43.1,25.1 -102.9,21.5 -168.8,-16.6 l -492.4,286.2 c 65.9,38 125.7,41.6 168.8,16.5"
         style="fill:#444f9e;fill-opacity:1;fill-rule:nonzero;stroke:none"
         id="path142" /><path
         d="m 11354.6,16989.2 c -14.8,8.6 -34.4,20.1 -49.3,28.7 -65.6,38.1 -131.3,76.2 -196.9,114.4 -82,47.7 -164.1,95.4 -246.1,143.1 -42.6,24.7 -69,77.3 -69.2,152.2 -0.4,150.6 105.3,333.9 236.5,409.7 l 492.4,-286.2 c -131.2,-75.7 -237,-258.9 -236.6,-409.6 0.2,-74.9 26.6,-127.5 69.2,-152.3"
         style="fill:#444f9e;fill-opacity:1;fill-rule:nonzero;stroke:none"
         id="path144" /><path
         d="m 10488.1,17443.7 492.4,-286.1 c 42.5,-24.8 68.9,-77.4 69.1,-152.2 0.4,-150.7 -105.3,-334 -236.5,-409.7 l -492.3,286.1 c 131.1,75.7 236.9,259 236.5,409.6 -0.2,74.9 -26.6,127.5 -69.2,152.3"
         style="fill:#44c0b9;fill-opacity:1;fill-rule:nonzero;stroke:none"
         id="path146" /><path
         d="m 10644.3,16579.2 c -164.1,95.4 -328.2,190.8 -492.4,286.2 43.2,-25.1 103,-21.6 168.9,16.4 l 492.3,-286.1 c -65.9,-38 -125.6,-41.6 -168.8,-16.5"
         style="fill:#44c0b9;fill-opacity:1;fill-rule:nonzero;stroke:none"
         id="path148" /><path
         d="m 10488.1,17443.7 c 164.1,-95.4 328.2,-190.7 492.4,-286.1 -43.2,25.1 -102.9,21.5 -168.9,-16.6 l -492.4,286.1 c 66,38.1 125.8,41.7 168.9,16.6"
         style="fill:#fcdd57;fill-opacity:1;fill-rule:nonzero;stroke:none"
         id="path150" /><path
         d="m 10644.3,16579.2 -492.4,286.2 c -42.5,24.7 -69,77.3 -69.2,152.1 -0.4,150.7 105.7,334.1 236.5,409.6 l 492.4,-286.1 c -130.9,-75.6 -237,-259 -236.6,-409.6 0.2,-74.8 26.7,-127.4 69.3,-152.2"
         style="fill:#fcdd57;fill-opacity:1;fill-rule:nonzero;stroke:none"
         id="path152" /><path
         d="m 9847.23,16881.5 c -0.24,74.8 -26.64,127.4 -69.26,152.2 l 492.43,-286.2 c 42.5,-24.7 68.9,-77.3 69.1,-152.1 0.5,-150.7 -105.6,-334.1 -236.4,-409.6 l -492.36,286.1 c 130.82,75.5 236.88,258.9 236.49,409.6"
         style="fill:#44c0b9;fill-opacity:1;fill-rule:nonzero;stroke:none"
         id="path154" /><path
         d="m 9441.8,16455.3 c 43.16,-25.1 102.93,-21.5 168.94,16.6 l 492.36,-286.1 c -66,-38.1 -125.8,-41.7 -168.96,-16.6 -147.66,85.8 -344.61,200.2 -492.34,286.1"
         style="fill:#44c0b9;fill-opacity:1;fill-rule:nonzero;stroke:none"
         id="path156" /><path
         d="m 9777.97,17033.7 c 164.14,-95.5 328.23,-190.8 492.43,-286.2 -43.2,25.1 -103,21.6 -168.9,-16.4 l -492.32,286.1 c 65.86,38 125.62,41.6 168.79,16.5"
         style="fill:#fcdd57;fill-opacity:1;fill-rule:nonzero;stroke:none"
         id="path158" /><path
         d="m 9934.18,16169.2 c -82.03,47.6 -164.14,95.3 -246.17,143 -82.07,47.7 -164.14,95.4 -246.21,143.1 -42.58,24.7 -68.95,77.4 -69.18,152.2 -0.39,150.7 105.43,333.9 236.56,409.7 l 492.32,-286.1 c -131.11,-75.7 -236.93,-259 -236.5,-409.7 0.2,-74.8 26.6,-127.5 69.18,-152.2"
         style="fill:#fcdd57;fill-opacity:1;fill-rule:nonzero;stroke:none"
         id="path160" /><path
         d="m 10103.1,16185.8 c 130.8,75.5 236.9,258.9 236.4,409.6 -0.4,150.7 -107.2,211.2 -238,135.7 -131.11,-75.7 -236.97,-259 -236.54,-409.7 0.47,-150.7 106.95,-211.4 238.14,-135.6 m 1420.4,820 c 131.1,75.8 236.9,259 236.5,409.7 -0.4,150.6 -107,211.3 -238,135.6 -131.2,-75.7 -237,-258.9 -236.6,-409.6 0.5,-150.7 106.9,-211.4 238.1,-135.7 m -710.4,-410.1 c 131.2,75.7 236.9,259 236.5,409.7 -0.4,150.6 -106.9,211.3 -238,135.6 -130.9,-75.6 -237,-259 -236.6,-409.6 0.5,-150.7 107.3,-211.2 238.1,-135.7 m -6686.03,-3044.3 8105.63,4679.8 3,-1042.8 -8105.66,-4679.8 -2.97,1042.8"
         style="fill:#44c0b9;fill-opacity:1;fill-rule:nonzero;stroke:none"
         id="path162" /><path
         d="m 11522,17551.1 c 131,75.7 237.6,15 238,-135.6 0.4,-150.7 -105.4,-333.9 -236.5,-409.7 -131.2,-75.7 -237.6,-15 -238.1,135.7 -0.4,150.7 105.4,333.9 236.6,409.6"
         style="fill:#f036a4;fill-opacity:1;fill-rule:nonzero;stroke:none"
         id="path164" /><path
         d="m 4145.7,6992.7 -492.38,286.1 -15.59,5515.9 492.31,-286.1 15.66,-5515.9"
         style="fill:#b8d4f1;fill-opacity:1;fill-rule:nonzero;stroke:none"
         id="path166" /><path
         d="m 4127.07,13551.4 -492.3,286.1 8105.63,4679.8 492.3,-286.1 -8105.63,-4679.8"
         style="fill:#44c0b9;fill-opacity:1;fill-rule:nonzero;stroke:none"
         id="path168" /><path
         d="m 4130.04,12508.6 -492.31,286.1 -2.96,1042.8 492.3,-286.1 2.97,-1042.8"
         style="fill:#44c0b9;fill-opacity:1;fill-rule:nonzero;stroke:none"
         id="path170" /><path
         d="m 4145.7,6992.7 -18.63,6558.7 8105.63,4679.8 3,-1042.8 v 0 0 l 15.6,-5516 L 4145.7,6992.7 M 12557,18682.9 c -0.2,42.1 -29.8,59.3 -66.3,38.1 L 3867.15,13742.2 c -36.6,-21.1 -65.9,-72.3 -65.82,-114.3 L 3821.45,6541 c 0.11,-42.1 29.64,-58.9 66.25,-37.8 l 8623.5,4978.8 c 36.7,21.1 65.9,72 65.8,114 l -20,7086.9"
         style="fill:#444f9e;fill-opacity:1;fill-rule:nonzero;stroke:none"
         id="path172" /><path
         d="m 11427.8,14211.4 c 30,17.3 54.7,3.6 54.8,-31.3 0.1,-34.5 -24.5,-76.8 -54.5,-94.2 L 9255.12,12831.4 c -30.04,-17.4 -54.53,-3.4 -54.61,31.1 -0.12,34.8 24.26,76.9 54.22,94.3 l 2173.07,1254.6"
         style="fill:#444f9e;fill-opacity:1;fill-rule:nonzero;stroke:none"
         id="path174" /><path
         d="m 10811.6,17141 c 131.1,75.7 237.6,15 238,-135.6 0.5,-150.7 -105.3,-334 -236.5,-409.7 -130.8,-75.5 -237.6,-15 -238.1,135.7 -0.4,150.6 105.7,334 236.6,409.6"
         style="fill:#444f9e;fill-opacity:1;fill-rule:nonzero;stroke:none"
         id="path176" /><path
         d="m 10101.5,16731.1 c 130.8,75.5 237.6,15 238,-135.7 0.5,-150.7 -105.6,-334.1 -236.4,-409.6 -131.19,-75.8 -237.67,-15.1 -238.1,135.6 -0.43,150.7 105.39,334 236.5,409.7"
         style="fill:#fcdd57;fill-opacity:1;fill-rule:nonzero;stroke:none"
         id="path178" /><path
         d="m 5965.9,13134.3 c 543.87,313.9 986.25,61.8 988.05,-562.7 0.74,-273 -82.7,-572.1 -222.23,-848.4 l -762.62,279.8 -984.49,-568.4 c -1.76,624.5 437.46,1385.7 981.29,1699.7"
         style="fill:#f036a4;fill-opacity:1;fill-rule:nonzero;stroke:none"
         id="path180" /><path
         d="m 12045.2,19011.7 c -11.9,7 -28.5,6 -46.8,-4.5 L 3374.84,14028.3 c -36.6,-21.1 -65.93,-72.3 -65.82,-114.3 l 20.08,-7086.9 c 0.04,-20.9 7.38,-35.6 19.18,-42.5 164.18,-95.3 328.24,-190.7 492.38,-286.1 -11.83,6.9 -19.14,21.6 -19.21,42.5 l -20.08,7086.9 c -0.12,42 29.18,93.2 65.78,114.3 L 12490.7,18721 c 18.3,10.6 34.9,11.6 46.9,4.6 -164.1,95.3 -328.3,190.7 -492.4,286.1"
         style="fill:#343b7c;fill-opacity:1;fill-rule:nonzero;stroke:none"
         id="path182" /><path
         d="m 13476.6,10727.3 -2.7,-188.2 -714,-426.6 2.7,188.2 714,426.6"
         style="fill:#91b5e4;fill-opacity:1;fill-rule:nonzero;stroke:none"
         id="path184" /><path
         d="m 12762.6,10300.7 -2.7,-188.2 -612.3,355.9 2.6,188.2 612.4,-355.9"
         style="fill:#77a0da;fill-opacity:1;fill-rule:nonzero;stroke:none"
         id="path186" /><path
         d="m 12864.1,11083.2 612.5,-355.9 -714,-426.6 -612.4,355.9 713.9,426.6"
         style="fill:#b8d4f1;fill-opacity:1;fill-rule:nonzero;stroke:none"
         id="path188" /><path
         d="m 12459.7,10119.8 -2.6,-188.2 -713.7,-426.3 2.7,188.1 713.6,426.4"
         style="fill:#91b5e4;fill-opacity:1;fill-rule:nonzero;stroke:none"
         id="path190" /><path
         d="m 11746.1,9693.4 -2.7,-188.1 -612.4,355.9 2.6,188.2 612.5,-356"
         style="fill:#77a0da;fill-opacity:1;fill-rule:nonzero;stroke:none"
         id="path192" /><path
         d="m 11847.3,10475.7 612.4,-355.9 -713.6,-426.4 -612.5,356 713.7,426.3"
         style="fill:#b8d4f1;fill-opacity:1;fill-rule:nonzero;stroke:none"
         id="path194" /><path
         d="m 11443.2,9512.5 -2.6,-188.1 -713.7,-426.4 2.6,188.2 713.7,426.3"
         style="fill:#91b5e4;fill-opacity:1;fill-rule:nonzero;stroke:none"
         id="path196" /><path
         d="m 10729.5,9086.2 -2.6,-188.2 -612.4,356 2.6,188.1 612.4,-355.9"
         style="fill:#77a0da;fill-opacity:1;fill-rule:nonzero;stroke:none"
         id="path198" /><path
         d="m 10830.8,9868.5 612.4,-356 -713.7,-426.3 -612.4,355.9 713.7,426.4"
         style="fill:#b8d4f1;fill-opacity:1;fill-rule:nonzero;stroke:none"
         id="path200" /><path
         d="m 10426.4,8905.1 -2.6,-188.1 -713.76,-426.4 2.66,188.2 713.7,426.3"
         style="fill:#91b5e4;fill-opacity:1;fill-rule:nonzero;stroke:none"
         id="path202" /><path
         d="m 9712.7,8478.8 -2.66,-188.2 -612.34,356 2.57,188.1 612.43,-355.9"
         style="fill:#77a0da;fill-opacity:1;fill-rule:nonzero;stroke:none"
         id="path204" /><path
         d="m 9813.98,9261 612.42,-355.9 -713.7,-426.3 -612.43,355.9 713.71,426.3"
         style="fill:#b8d4f1;fill-opacity:1;fill-rule:nonzero;stroke:none"
         id="path206" /><path
         d="m 9409.84,8297.9 -2.61,-188.1 -713.71,-426.4 2.61,188.1 713.71,426.4"
         style="fill:#91b5e4;fill-opacity:1;fill-rule:nonzero;stroke:none"
         id="path208" /><path
         d="m 8696.13,7871.5 -2.61,-188.1 -612.39,355.9 2.62,188.2 612.38,-356"
         style="fill:#77a0da;fill-opacity:1;fill-rule:nonzero;stroke:none"
         id="path210" /><path
         d="m 8797.46,8653.8 612.38,-355.9 -713.71,-426.4 -612.38,356 713.71,426.3"
         style="fill:#b8d4f1;fill-opacity:1;fill-rule:nonzero;stroke:none"
         id="path212" /><path
         d="m 8393.32,7690.6 -2.62,-188.1 -713.98,-426.6 2.54,188.2 714.06,426.5"
         style="fill:#91b5e4;fill-opacity:1;fill-rule:nonzero;stroke:none"
         id="path214" /><path
         d="m 7679.26,7264.1 -2.54,-188.2 -612.38,356 2.57,188.1 612.35,-355.9"
         style="fill:#77a0da;fill-opacity:1;fill-rule:nonzero;stroke:none"
         id="path216" /><path
         d="m 7780.94,8046.5 612.38,-355.9 -714.06,-426.5 -612.35,355.9 714.03,426.5"
         style="fill:#b8d4f1;fill-opacity:1;fill-rule:nonzero;stroke:none"
         id="path218" /><path
         d="m 7376.48,7083.2 -2.57,-188.1 -713.75,-426.4 2.61,188.2 713.71,426.3"
         style="fill:#91b5e4;fill-opacity:1;fill-rule:nonzero;stroke:none"
         id="path220" /><path
         d="m 6662.77,6656.9 -2.61,-188.2 -612.39,355.9 2.62,188.2 612.38,-355.9"
         style="fill:#77a0da;fill-opacity:1;fill-rule:nonzero;stroke:none"
         id="path222" /><path
         d="m 6764.06,7439.1 612.42,-355.9 -713.71,-426.3 -612.38,355.9 713.67,426.3"
         style="fill:#b8d4f1;fill-opacity:1;fill-rule:nonzero;stroke:none"
         id="path224" /><path
         d="m 6359.96,6476 -2.62,-188.3 -713.94,-426.5 2.54,188.2 714.02,426.6"
         style="fill:#91b5e4;fill-opacity:1;fill-rule:nonzero;stroke:none"
         id="path226" /><path
         d="m 5645.94,6049.4 -2.54,-188.2 -612.46,355.9 2.61,188.3 612.39,-356"
         style="fill:#77a0da;fill-opacity:1;fill-rule:nonzero;stroke:none"
         id="path228" /><path
         d="m 5747.58,6831.9 612.38,-355.9 -714.02,-426.6 -612.39,356 714.03,426.5"
         style="fill:#b8d4f1;fill-opacity:1;fill-rule:nonzero;stroke:none"
         id="path230" /><path
         d="m 14319.2,10237.5 -2.6,-188.2 -714,-426.5 2.6,188.1 714,426.6"
         style="fill:#91b5e4;fill-opacity:1;fill-rule:nonzero;stroke:none"
         id="path232" /><path
         d="m 13605.2,9810.9 -2.6,-188.1 -612.3,355.9 2.6,188.1 612.3,-355.9"
         style="fill:#77a0da;fill-opacity:1;fill-rule:nonzero;stroke:none"
         id="path234" /><path
         d="m 13706.8,10593.4 612.4,-355.9 -714,-426.6 -612.3,355.9 713.9,426.6"
         style="fill:#b8d4f1;fill-opacity:1;fill-rule:nonzero;stroke:none"
         id="path236" /><path
         d="m 13302.4,9630 -2.6,-188.2 -713.7,-426.3 2.6,188.2 713.7,426.3"
         style="fill:#91b5e4;fill-opacity:1;fill-rule:nonzero;stroke:none"
         id="path238" /><path
         d="m 12588.7,9203.7 -2.6,-188.2 -612.4,355.9 2.6,188.2 612.4,-355.9"
         style="fill:#77a0da;fill-opacity:1;fill-rule:nonzero;stroke:none"
         id="path240" /><path
         d="m 12690.1,9985.9 612.3,-355.9 -713.7,-426.3 -612.4,355.9 713.8,426.3"
         style="fill:#b8d4f1;fill-opacity:1;fill-rule:nonzero;stroke:none"
         id="path242" /><path
         d="m 15161.6,9747.9 -2.6,-188.2 -1730.6,-1033.8 2.7,188.2 1730.5,1033.8"
         style="fill:#91b5e4;fill-opacity:1;fill-rule:nonzero;stroke:none"
         id="path244" /><path
         d="m 13431.1,8714.1 -2.7,-188.2 -612.3,355.9 2.6,188.2 612.4,-355.9"
         style="fill:#77a0da;fill-opacity:1;fill-rule:nonzero;stroke:none"
         id="path246" /><path
         d="m 14549.1,10103.8 612.5,-355.9 -1730.5,-1033.8 -612.4,355.9 1730.4,1033.8"
         style="fill:#b8d4f1;fill-opacity:1;fill-rule:nonzero;stroke:none"
         id="path248" /><path
         d="m 16004.3,9258 -2.7,-188.1 -713.9,-426.5 2.6,188.1 714,426.5"
         style="fill:#91b5e4;fill-opacity:1;fill-rule:nonzero;stroke:none"
         id="path250" /><path
         d="m 15290.3,8831.5 -2.6,-188.1 -612.4,355.9 2.6,188.2 612.4,-356"
         style="fill:#77a0da;fill-opacity:1;fill-rule:nonzero;stroke:none"
         id="path252" /><path
         d="m 15391.9,9614 612.4,-356 -714,-426.5 -612.4,356 714,426.5"
         style="fill:#b8d4f1;fill-opacity:1;fill-rule:nonzero;stroke:none"
         id="path254" /><path
         d="m 14987.5,8650.7 -2.7,-188.2 -713.7,-426.4 2.7,188.2 713.7,426.4"
         style="fill:#91b5e4;fill-opacity:1;fill-rule:nonzero;stroke:none"
         id="path256" /><path
         d="m 14273.8,8224.3 -2.7,-188.2 -612.3,356 2.6,188.1 612.4,-355.9"
         style="fill:#77a0da;fill-opacity:1;fill-rule:nonzero;stroke:none"
         id="path258" /><path
         d="m 14375.1,9006.6 612.4,-355.9 -713.7,-426.4 -612.4,355.9 713.7,426.4"
         style="fill:#b8d4f1;fill-opacity:1;fill-rule:nonzero;stroke:none"
         id="path260" /><path
         d="m 12285.9,9022.8 -2.7,-188.2 -713.6,-426.4 2.6,188.2 713.7,426.4"
         style="fill:#91b5e4;fill-opacity:1;fill-rule:nonzero;stroke:none"
         id="path262" /><path
         d="m 11572.2,8596.4 -2.6,-188.2 -612.4,356 2.6,188.1 612.4,-355.9"
         style="fill:#77a0da;fill-opacity:1;fill-rule:nonzero;stroke:none"
         id="path264" /><path
         d="m 11673.5,9378.7 612.4,-355.9 -713.7,-426.4 -612.4,355.9 713.7,426.4"
         style="fill:#b8d4f1;fill-opacity:1;fill-rule:nonzero;stroke:none"
         id="path266" /><path
         d="m 13128.3,8533.2 -2.7,-188.2 -713.6,-426.3 2.5,188.1 713.8,426.4"
         style="fill:#91b5e4;fill-opacity:1;fill-rule:nonzero;stroke:none"
         id="path268" /><path
         d="m 12414.5,8106.8 -2.5,-188.1 -612.4,355.9 2.5,188.1 612.4,-355.9"
         style="fill:#77a0da;fill-opacity:1;fill-rule:nonzero;stroke:none"
         id="path270" /><path
         d="m 12515.9,8889.1 612.4,-355.9 -713.8,-426.4 -612.4,355.9 713.8,426.4"
         style="fill:#b8d4f1;fill-opacity:1;fill-rule:nonzero;stroke:none"
         id="path272" /><path
         d="m 11269.1,8415.4 -2.7,-188.2 -713.7,-426.4 2.7,188.2 713.7,426.4"
         style="fill:#91b5e4;fill-opacity:1;fill-rule:nonzero;stroke:none"
         id="path274" /><path
         d="m 10555.4,7989 -2.7,-188.2 -612.31,355.9 2.58,188.2 612.43,-355.9"
         style="fill:#77a0da;fill-opacity:1;fill-rule:nonzero;stroke:none"
         id="path276" /><path
         d="m 10656.7,8771.3 612.4,-355.9 -713.7,-426.4 -612.43,355.9 713.73,426.4"
         style="fill:#b8d4f1;fill-opacity:1;fill-rule:nonzero;stroke:none"
         id="path278" /><path
         d="m 12111.4,7925.7 -2.5,-188.1 -713.8,-426.4 2.7,188.2 713.6,426.3"
         style="fill:#91b5e4;fill-opacity:1;fill-rule:nonzero;stroke:none"
         id="path280" /><path
         d="m 11397.8,7499.4 -2.7,-188.2 -612.4,355.9 2.6,188.3 612.5,-356"
         style="fill:#77a0da;fill-opacity:1;fill-rule:nonzero;stroke:none"
         id="path282" /><path
         d="m 11499.1,8281.6 612.3,-355.9 -713.6,-426.3 -612.5,356 713.8,426.2"
         style="fill:#b8d4f1;fill-opacity:1;fill-rule:nonzero;stroke:none"
         id="path284" /><path
         d="m 10252.5,7808.1 -2.6,-188.2 -713.73,-426.3 2.7,188.1 713.63,426.4"
         style="fill:#91b5e4;fill-opacity:1;fill-rule:nonzero;stroke:none"
         id="path286" /><path
         d="m 9538.87,7381.7 -2.7,-188.1 -612.34,355.9 2.58,188.2 612.46,-356"
         style="fill:#77a0da;fill-opacity:1;fill-rule:nonzero;stroke:none"
         id="path288" /><path
         d="m 9640.2,8164 612.3,-355.9 -713.63,-426.4 -612.46,356 713.79,426.3"
         style="fill:#b8d4f1;fill-opacity:1;fill-rule:nonzero;stroke:none"
         id="path290" /><path
         d="m 11094.9,7318.6 -2.6,-188.2 -713.7,-426.4 2.6,188.2 713.7,426.4"
         style="fill:#91b5e4;fill-opacity:1;fill-rule:nonzero;stroke:none"
         id="path292" /><path
         d="m 10381.2,6892.2 -2.6,-188.2 -612.47,355.9 2.62,188.2 612.45,-355.9"
         style="fill:#77a0da;fill-opacity:1;fill-rule:nonzero;stroke:none"
         id="path294" /><path
         d="m 10482.5,7674.5 612.4,-355.9 -713.7,-426.4 -612.45,355.9 713.75,426.4"
         style="fill:#b8d4f1;fill-opacity:1;fill-rule:nonzero;stroke:none"
         id="path296" /><path
         d="m 9236.02,7200.9 -2.58,-188.2 -714.1,-426.5 2.69,188.1 713.99,426.6"
         style="fill:#91b5e4;fill-opacity:1;fill-rule:nonzero;stroke:none"
         id="path298" /><path
         d="m 8522.03,6774.3 -2.69,-188.1 -612.39,355.9 2.62,188.1 612.46,-355.9"
         style="fill:#77a0da;fill-opacity:1;fill-rule:nonzero;stroke:none"
         id="path300" /><path
         d="m 8623.63,7556.8 612.39,-355.9 -713.99,-426.6 -612.46,355.9 714.06,426.6"
         style="fill:#b8d4f1;fill-opacity:1;fill-rule:nonzero;stroke:none"
         id="path302" /><path
         d="m 10078.3,6711.2 -2.5,-188.1 -714.08,-426.6 2.62,188.2 713.96,426.5"
         style="fill:#91b5e4;fill-opacity:1;fill-rule:nonzero;stroke:none"
         id="path304" /><path
         d="m 9364.34,6284.7 -2.62,-188.2 -612.38,356 2.65,188.1 612.35,-355.9"
         style="fill:#77a0da;fill-opacity:1;fill-rule:nonzero;stroke:none"
         id="path306" /><path
         d="m 9465.94,7067.2 612.36,-356 -713.96,-426.5 -612.35,355.9 713.95,426.6"
         style="fill:#b8d4f1;fill-opacity:1;fill-rule:nonzero;stroke:none"
         id="path308" /><path
         d="m 13970.9,8043.4 -2.6,-188.2 -3763.8,-2248.4 2.6,188.2 3763.8,2248.4"
         style="fill:#91b5e4;fill-opacity:1;fill-rule:nonzero;stroke:none"
         id="path310" /><path
         d="m 10207.1,5795 -2.6,-188.2 -612.43,355.9 2.58,188.2 612.45,-355.9"
         style="fill:#77a0da;fill-opacity:1;fill-rule:nonzero;stroke:none"
         id="path312" /><path
         d="M 13358.6,8399.3 13970.9,8043.4 10207.1,5795 9594.65,6150.9 13358.6,8399.3"
         style="fill:#b8d4f1;fill-opacity:1;fill-rule:nonzero;stroke:none"
         id="path314" /><path
         d="m 8219.14,6593.4 -2.54,-188.1 -1730.58,-1033.8 2.65,188.2 1730.47,1033.7"
         style="fill:#91b5e4;fill-opacity:1;fill-rule:nonzero;stroke:none"
         id="path316" /><path
         d="m 6488.67,5559.7 -2.65,-188.2 -612.39,355.9 2.62,188.2 612.42,-355.9"
         style="fill:#77a0da;fill-opacity:1;fill-rule:nonzero;stroke:none"
         id="path318" /><path
         d="m 7606.76,6949.4 612.38,-356 -1730.47,-1033.7 -612.42,355.9 1730.51,1033.8"
         style="fill:#b8d4f1;fill-opacity:1;fill-rule:nonzero;stroke:none"
         id="path320" /><path
         d="m 9061.56,6103.8 -2.61,-188.1 -713.75,-426.4 2.65,188.2 713.71,426.3"
         style="fill:#91b5e4;fill-opacity:1;fill-rule:nonzero;stroke:none"
         id="path322" /><path
         d="m 8347.85,5677.5 -2.65,-188.2 -612.35,356 2.58,188.1 612.42,-355.9"
         style="fill:#77a0da;fill-opacity:1;fill-rule:nonzero;stroke:none"
         id="path324" /><path
         d="m 8449.18,6459.7 612.38,-355.9 -713.71,-426.3 -612.42,355.9 713.75,426.3"
         style="fill:#b8d4f1;fill-opacity:1;fill-rule:nonzero;stroke:none"
         id="path326" /><path
         d="m 9904.26,5614.1 -2.66,-188.2 -713.71,-426.4 2.62,188.2 713.75,426.4"
         style="fill:#91b5e4;fill-opacity:1;fill-rule:nonzero;stroke:none"
         id="path328" /><path
         d="m 9190.51,5187.7 -2.62,-188.2 -612.34,356 2.61,188.1 612.35,-355.9"
         style="fill:#77a0da;fill-opacity:1;fill-rule:nonzero;stroke:none"
         id="path330" /><path
         d="m 9291.91,5970 612.35,-355.9 -713.75,-426.4 -612.35,355.9 713.75,426.4"
         style="fill:#b8d4f1;fill-opacity:1;fill-rule:nonzero;stroke:none"
         id="path332" /><path
         d="m 8045,5496.6 -2.58,-188.2 -714.02,-426.5 2.58,188.2 714.02,426.5"
         style="fill:#91b5e4;fill-opacity:1;fill-rule:nonzero;stroke:none"
         id="path334" /><path
         d="m 7330.98,5070.1 -2.58,-188.2 -612.38,355.9 2.61,188.2 612.35,-355.9"
         style="fill:#77a0da;fill-opacity:1;fill-rule:nonzero;stroke:none"
         id="path336" /><path
         d="M 7432.62,5852.5 8045,5496.6 7330.98,5070.1 6718.63,5426 l 713.99,426.5"
         style="fill:#b8d4f1;fill-opacity:1;fill-rule:nonzero;stroke:none"
         id="path338" /><path
         d="m 8887.7,5006.8 -2.58,-188.2 -714.03,-426.5 2.62,188.2 713.99,426.5"
         style="fill:#91b5e4;fill-opacity:1;fill-rule:nonzero;stroke:none"
         id="path340" /><path
         d="m 8173.71,4580.3 -2.62,-188.2 -612.38,355.9 2.58,188.2 612.42,-355.9"
         style="fill:#77a0da;fill-opacity:1;fill-rule:nonzero;stroke:none"
         id="path342" /><path
         d="m 8275.31,5362.7 612.39,-355.9 -713.99,-426.5 -612.42,355.9 714.02,426.5"
         style="fill:#b8d4f1;fill-opacity:1;fill-rule:nonzero;stroke:none"
         id="path344" /><path
         d="M 14295.9,7095.9 11819.4,5616.4 c -36,-21.4 -95,-21.2 -131.7,0.1 l -612.4,355.9 c -19,11.1 -28.4,25.6 -28.2,40 l -2.6,-188.1 c -0.3,-14.5 9.3,-28.9 28.3,-40.1 l 612.4,-355.8 c 36.6,-21.4 95.7,-21.6 131.6,-0.1 l 2476.6,1479.5 c 17.4,10.4 26.2,24 26.4,37.7 0.9,62.7 1.7,125.4 2.6,188.2 -0.2,-13.7 -9,-27.3 -26.5,-37.8"
         style="fill:#77a0da;fill-opacity:1;fill-rule:nonzero;stroke:none"
         id="path346" /><path
         d="m 13550.1,7529.5 c 36,21.4 94.9,21.6 131.9,0 l 612.3,-355.9 c 36.7,-21.3 37.7,-56.2 1.6,-77.7 L 11819.4,5616.4 c -36,-21.4 -95,-21.2 -131.7,0.1 l -612.4,355.9 c -36.9,21.5 -37.8,56.1 -1.9,77.6 l 2476.7,1479.5"
         style="fill:#b8d4f1;fill-opacity:1;fill-rule:nonzero;stroke:none"
         id="path348" /><path
         d="M 2769.73,6096.5 3325.2,6401.2 9153.13,2937.8 17840,8227.5 18368.2,7890.5 9190.51,2210.7 2769.73,6096.5"
         style="fill:#d1cac8;fill-opacity:1;fill-rule:nonzero;stroke:none"
         id="path350" /></g></g></svg>
